# Blender 4.4.3
# www.blender.org
mtllib BusterSord.mtl
o Cube
v -2.059964 11.097227 1.465151
v -2.059964 3.376607 1.465151
v -2.059964 11.097227 1.247926
v -2.059964 3.376607 1.247926
v -4.059964 11.097227 1.465151
v -4.059964 3.376607 1.465151
v -4.059964 11.097227 1.247926
v -4.059964 3.376607 1.247926
v -4.059964 3.376607 1.356539
v -1.774158 11.341114 1.356539
v -4.059964 12.166960 1.356539
v -1.588859 3.376607 1.356539
vn 0.0302 0.1567 -0.9872
vn -0.0000 -0.0000 -1.0000
vn -1.0000 -0.0000 -0.0000
vn -0.0000 -1.0000 -0.0000
vn 0.2749 0.0032 -0.9615
vn -0.0000 -0.0000 1.0000
vn 0.2749 0.0032 0.9615
vn 0.0302 0.1567 0.9872
vt 0.625000 0.625000
vt 0.875000 0.625000
vt 0.875000 0.750000
vt 0.625000 0.750000
vt 0.375000 0.750000
vt 0.625000 1.000000
vt 0.375000 1.000000
vt 0.375000 0.125000
vt 0.625000 0.125000
vt 0.625000 0.250000
vt 0.375000 0.250000
vt 0.125000 0.625000
vt 0.375000 0.625000
vt 0.125000 0.750000
vt 0.625000 0.500000
vt 0.375000 0.500000
vt 0.125000 0.500000
vt 0.375000 0.000000
vt 0.625000 0.000000
vt 0.875000 0.500000
s 0
usemtl Material
f 10/1/1 3/4/1 7/3/1 11/2/1
f 4/5/2 8/7/2 7/6/2 3/4/2
f 9/8/3 6/11/3 5/10/3 11/9/3
f 9/12/4 8/14/4 4/5/4 12/13/4
f 12/13/5 4/5/5 3/4/5 10/1/5
f 6/11/6 2/16/6 1/15/6 5/10/6
f 2/16/7 12/13/7 10/1/7 1/15/7
f 6/17/4 9/12/4 12/13/4 2/16/4
f 8/18/3 9/8/3 11/9/3 7/19/3
f 1/15/8 10/1/8 11/2/8 5/20/8
o 立方体
v -1.189933 2.983882 1.966297
v -1.189933 3.421856 1.966297
v -1.189933 2.983882 0.738402
v -1.189933 3.421856 0.738402
v -4.530682 2.983882 1.966297
v -4.530682 3.421856 1.966297
v -4.530682 2.983882 0.738402
v -4.530682 3.421856 0.738402
vn 1.0000 -0.0000 -0.0000
vn -0.0000 -0.0000 -1.0000
vn -1.0000 -0.0000 -0.0000
vn -0.0000 -0.0000 1.0000
vn -0.0000 -1.0000 -0.0000
vn -0.0000 1.0000 -0.0000
vt 0.375000 0.000000
vt 0.625000 0.000000
vt 0.625000 0.250000
vt 0.375000 0.250000
vt 0.625000 0.500000
vt 0.375000 0.500000
vt 0.625000 0.750000
vt 0.375000 0.750000
vt 0.625000 1.000000
vt 0.375000 1.000000
vt 0.125000 0.500000
vt 0.125000 0.750000
vt 0.875000 0.500000
vt 0.875000 0.750000
s 0
f 13/21/9 15/24/9 16/23/9 14/22/9
f 15/24/10 19/26/10 20/25/10 16/23/10
f 19/26/11 17/28/11 18/27/11 20/25/11
f 17/28/12 13/30/12 14/29/12 18/27/12
f 15/31/13 13/32/13 17/28/13 19/26/13
f 20/25/14 18/27/14 14/34/14 16/33/14
o 円柱
v -2.766539 -1.408325 1.184216
v -2.766539 3.283437 1.184216
v -2.734204 -1.408325 1.187431
v -2.734204 3.283437 1.187431
v -2.703112 -1.408325 1.196954
v -2.703112 3.283437 1.196954
v -2.674456 -1.408325 1.212419
v -2.674456 3.283437 1.212419
v -2.649340 -1.408325 1.233230
v -2.649340 3.283437 1.233230
v -2.628728 -1.408325 1.258589
v -2.628728 3.283437 1.258589
v -2.613411 -1.408325 1.287520
v -2.613411 3.283437 1.287520
v -2.603979 -1.408325 1.318913
v -2.603979 3.283437 1.318913
v -2.600795 -1.408325 1.351560
v -2.600795 3.283437 1.351560
v -2.603979 -1.408325 1.384208
v -2.603979 3.283437 1.384208
v -2.613411 -1.408325 1.415600
v -2.613411 3.283437 1.415600
v -2.628728 -1.408325 1.444532
v -2.628728 3.283437 1.444532
v -2.649340 -1.408325 1.469891
v -2.649340 3.283437 1.469891
v -2.674456 -1.408325 1.490702
v -2.674456 3.283437 1.490702
v -2.703112 -1.408325 1.506166
v -2.703112 3.283437 1.506166
v -2.734204 -1.408325 1.515689
v -2.734204 3.283437 1.515689
v -2.766539 -1.408325 1.518905
v -2.766539 3.283437 1.518905
v -2.798875 -1.408325 1.515689
v -2.798875 3.283437 1.515689
v -2.829967 -1.408325 1.506166
v -2.829967 3.283437 1.506166
v -2.858622 -1.408325 1.490702
v -2.858622 3.283437 1.490702
v -2.883739 -1.408325 1.469891
v -2.883739 3.283437 1.469891
v -2.904351 -1.408325 1.444532
v -2.904351 3.283437 1.444532
v -2.919667 -1.408325 1.415600
v -2.919667 3.283437 1.415600
v -2.929099 -1.408325 1.384208
v -2.929099 3.283437 1.384208
v -2.932284 -1.408325 1.351560
v -2.932284 3.283437 1.351560
v -2.929099 -1.408325 1.318913
v -2.929099 3.283437 1.318913
v -2.919667 -1.408325 1.287520
v -2.919667 3.283437 1.287520
v -2.904351 -1.408325 1.258589
v -2.904351 3.283437 1.258589
v -2.883739 -1.408325 1.233230
v -2.883739 3.283437 1.233230
v -2.858622 -1.408325 1.212419
v -2.858622 3.283437 1.212419
v -2.829967 -1.408325 1.196954
v -2.829967 3.283437 1.196954
v -2.798875 -1.408325 1.187431
v -2.798875 3.283437 1.187431
vn 0.0990 -0.0000 -0.9951
vn 0.2928 -0.0000 -0.9562
vn 0.4749 -0.0000 -0.8800
vn 0.6380 -0.0000 -0.7700
vn 0.7760 -0.0000 -0.6307
vn 0.8838 -0.0000 -0.4679
vn 0.9577 -0.0000 -0.2877
vn 0.9953 -0.0000 -0.0971
vn 0.9953 -0.0000 0.0971
vn 0.9577 -0.0000 0.2877
vn 0.8838 -0.0000 0.4679
vn 0.7760 -0.0000 0.6307
vn 0.6380 -0.0000 0.7700
vn 0.4749 -0.0000 0.8800
vn 0.2928 -0.0000 0.9562
vn 0.0990 -0.0000 0.9951
vn -0.0990 -0.0000 0.9951
vn -0.2928 -0.0000 0.9562
vn -0.4749 -0.0000 0.8800
vn -0.6380 -0.0000 0.7700
vn -0.7760 -0.0000 0.6307
vn -0.8838 -0.0000 0.4679
vn -0.9577 -0.0000 0.2877
vn -0.9953 -0.0000 0.0971
vn -0.9953 -0.0000 -0.0971
vn -0.9577 -0.0000 -0.2877
vn -0.8838 -0.0000 -0.4679
vn -0.7760 -0.0000 -0.6307
vn -0.6380 -0.0000 -0.7700
vn -0.4749 -0.0000 -0.8800
vn -0.0000 1.0000 -0.0000
vn -0.2928 -0.0000 -0.9562
vn -0.0990 -0.0000 -0.9951
vn -0.0000 -1.0000 -0.0000
vt 1.000000 0.500000
vt 1.000000 1.000000
vt 0.968750 1.000000
vt 0.968750 0.500000
vt 0.937500 1.000000
vt 0.937500 0.500000
vt 0.906250 1.000000
vt 0.906250 0.500000
vt 0.875000 1.000000
vt 0.875000 0.500000
vt 0.843750 1.000000
vt 0.843750 0.500000
vt 0.812500 1.000000
vt 0.812500 0.500000
vt 0.781250 1.000000
vt 0.781250 0.500000
vt 0.750000 1.000000
vt 0.750000 0.500000
vt 0.718750 1.000000
vt 0.718750 0.500000
vt 0.687500 1.000000
vt 0.687500 0.500000
vt 0.656250 1.000000
vt 0.656250 0.500000
vt 0.625000 1.000000
vt 0.625000 0.500000
vt 0.593750 1.000000
vt 0.593750 0.500000
vt 0.562500 1.000000
vt 0.562500 0.500000
vt 0.531250 1.000000
vt 0.531250 0.500000
vt 0.500000 1.000000
vt 0.500000 0.500000
vt 0.468750 1.000000
vt 0.468750 0.500000
vt 0.437500 1.000000
vt 0.437500 0.500000
vt 0.406250 1.000000
vt 0.406250 0.500000
vt 0.375000 1.000000
vt 0.375000 0.500000
vt 0.343750 1.000000
vt 0.343750 0.500000
vt 0.312500 1.000000
vt 0.312500 0.500000
vt 0.281250 1.000000
vt 0.281250 0.500000
vt 0.250000 1.000000
vt 0.250000 0.500000
vt 0.218750 1.000000
vt 0.218750 0.500000
vt 0.187500 1.000000
vt 0.187500 0.500000
vt 0.156250 1.000000
vt 0.156250 0.500000
vt 0.125000 1.000000
vt 0.125000 0.500000
vt 0.093750 1.000000
vt 0.093750 0.500000
vt 0.062500 1.000000
vt 0.062500 0.500000
vt 0.296822 0.485388
vt 0.250000 0.490000
vt 0.203178 0.485388
vt 0.158156 0.471731
vt 0.116663 0.449553
vt 0.080294 0.419706
vt 0.050447 0.383337
vt 0.028269 0.341844
vt 0.014612 0.296822
vt 0.010000 0.250000
vt 0.014612 0.203178
vt 0.028269 0.158156
vt 0.050447 0.116663
vt 0.080294 0.080294
vt 0.116663 0.050447
vt 0.158156 0.028269
vt 0.203178 0.014612
vt 0.250000 0.010000
vt 0.296822 0.014612
vt 0.341844 0.028269
vt 0.383337 0.050447
vt 0.419706 0.080294
vt 0.449553 0.116663
vt 0.471731 0.158156
vt 0.485388 0.203178
vt 0.490000 0.250000
vt 0.485388 0.296822
vt 0.471731 0.341844
vt 0.449553 0.383337
vt 0.419706 0.419706
vt 0.383337 0.449553
vt 0.341844 0.471731
vt 0.031250 1.000000
vt 0.031250 0.500000
vt 0.000000 1.000000
vt 0.000000 0.500000
vt 0.750000 0.490000
vt 0.796822 0.485388
vt 0.841844 0.471731
vt 0.883337 0.449553
vt 0.919706 0.419706
vt 0.949553 0.383337
vt 0.971731 0.341844
vt 0.985388 0.296822
vt 0.990000 0.250000
vt 0.985388 0.203178
vt 0.971731 0.158156
vt 0.949553 0.116663
vt 0.919706 0.080294
vt 0.883337 0.050447
vt 0.841844 0.028269
vt 0.796822 0.014612
vt 0.750000 0.010000
vt 0.703178 0.014612
vt 0.658156 0.028269
vt 0.616663 0.050447
vt 0.580294 0.080294
vt 0.550447 0.116663
vt 0.528269 0.158156
vt 0.514612 0.203178
vt 0.510000 0.250000
vt 0.514612 0.296822
vt 0.528269 0.341844
vt 0.550447 0.383337
vt 0.580294 0.419706
vt 0.616663 0.449553
vt 0.658156 0.471731
vt 0.703178 0.485388
s 0
f 21/35/15 22/36/15 24/37/15 23/38/15
f 23/38/16 24/37/16 26/39/16 25/40/16
f 25/40/17 26/39/17 28/41/17 27/42/17
f 27/42/18 28/41/18 30/43/18 29/44/18
f 29/44/19 30/43/19 32/45/19 31/46/19
f 31/46/20 32/45/20 34/47/20 33/48/20
f 33/48/21 34/47/21 36/49/21 35/50/21
f 35/50/22 36/49/22 38/51/22 37/52/22
f 37/52/23 38/51/23 40/53/23 39/54/23
f 39/54/24 40/53/24 42/55/24 41/56/24
f 41/56/25 42/55/25 44/57/25 43/58/25
f 43/58/26 44/57/26 46/59/26 45/60/26
f 45/60/27 46/59/27 48/61/27 47/62/27
f 47/62/28 48/61/28 50/63/28 49/64/28
f 49/64/29 50/63/29 52/65/29 51/66/29
f 51/66/30 52/65/30 54/67/30 53/68/30
f 53/68/31 54/67/31 56/69/31 55/70/31
f 55/70/32 56/69/32 58/71/32 57/72/32
f 57/72/33 58/71/33 60/73/33 59/74/33
f 59/74/34 60/73/34 62/75/34 61/76/34
f 61/76/35 62/75/35 64/77/35 63/78/35
f 63/78/36 64/77/36 66/79/36 65/80/36
f 65/80/37 66/79/37 68/81/37 67/82/37
f 67/82/38 68/81/38 70/83/38 69/84/38
f 69/84/39 70/83/39 72/85/39 71/86/39
f 71/86/40 72/85/40 74/87/40 73/88/40
f 73/88/41 74/87/41 76/89/41 75/90/41
f 75/90/42 76/89/42 78/91/42 77/92/42
f 77/92/43 78/91/43 80/93/43 79/94/43
f 79/94/44 80/93/44 82/95/44 81/96/44
f 24/97/45 22/98/45 84/99/45 82/100/45 80/101/45 78/102/45 76/103/45 74/104/45 72/105/45 70/106/45 68/107/45 66/108/45 64/109/45 62/110/45 60/111/45 58/112/45 56/113/45 54/114/45 52/115/45 50/116/45 48/117/45 46/118/45 44/119/45 42/120/45 40/121/45 38/122/45 36/123/45 34/124/45 32/125/45 30/126/45 28/127/45 26/128/45
f 81/96/46 82/95/46 84/129/46 83/130/46
f 83/130/47 84/129/47 22/131/47 21/132/47
f 21/133/48 23/134/48 25/135/48 27/136/48 29/137/48 31/138/48 33/139/48 35/140/48 37/141/48 39/142/48 41/143/48 43/144/48 45/145/48 47/146/48 49/147/48 51/148/48 53/149/48 55/150/48 57/151/48 59/152/48 61/153/48 63/154/48 65/155/48 67/156/48 69/157/48 71/158/48 73/159/48 75/160/48 77/161/48 79/162/48 81/163/48 83/164/48
