# Blender 5.1.2
# www.blender.org
mtllib Item.mtl
o Cube
v 0.583972 0.641905 -0.131962
v 0.583972 0.872608 -0.097073
v 0.793853 0.641905 -0.097073
v 0.583972 -0.872608 -0.097073
v 0.583972 -0.641905 -0.131962
v 0.793853 -0.641905 -0.097073
v 0.793853 0.641905 0.097073
v 0.583972 0.872608 0.097073
v 0.583972 0.641905 0.131962
v 0.793853 -0.641905 0.097073
v 0.583972 -0.641905 0.131962
v 0.583972 -0.872608 0.097073
v -0.583972 0.641905 -0.131962
v -0.793853 0.641905 -0.097073
v -0.583972 0.872608 -0.097073
v -0.793853 -0.641905 -0.097073
v -0.583972 -0.641905 -0.131962
v -0.583972 -0.872608 -0.097073
v -0.793853 0.641905 0.097073
v -0.583972 0.641905 0.131962
v -0.583972 0.872608 0.097073
v -0.583972 -0.872608 0.097073
v -0.583972 -0.641905 0.131962
v -0.793853 -0.641905 0.097073
v -0.208585 -0.249722 0.105955
v -0.208585 0.249722 0.105955
v -0.208585 -0.249722 -0.105955
v -0.208585 0.249722 -0.105955
v 0.208585 -0.038824 0.105955
v 0.208585 0.021356 0.105955
v 0.208585 -0.038824 -0.105955
v 0.208585 0.021356 -0.105955
v -0.208585 0.000000 0.105955
v -0.208585 0.000000 -0.105955
v 0.208585 0.000000 -0.105955
v 0.208585 0.000000 0.105955
vn 0.1622 0.1475 -0.9757
vn 0.1622 -0.1475 -0.9757
vn 0.1622 0.1475 0.9757
vn 0.1622 -0.1475 0.9757
vn -0.1622 0.1475 -0.9757
vn -0.1622 -0.1475 -0.9757
vn -0.1622 0.1475 0.9757
vn -0.1622 -0.1475 0.9757
vn -0.7397 -0.6729 -0.0000
vn -0.0000 -0.1495 -0.9888
vn 0.1640 -0.0000 -0.9865
vn -0.1640 -0.0000 0.9865
vn 0.1640 -0.0000 0.9865
vn -0.1640 -0.0000 -0.9865
vn -0.0000 0.1495 0.9888
vn 0.7397 0.6729 -0.0000
vn -0.0000 -0.1495 0.9888
vn -0.7397 0.6729 -0.0000
vn -0.0000 0.1495 -0.9888
vn 0.7397 -0.6729 -0.0000
vn -0.0000 -0.0000 -1.0000
vn 1.0000 -0.0000 -0.0000
vn -0.0000 1.0000 -0.0000
vn -0.0000 -1.0000 -0.0000
vn -0.0000 -0.0000 1.0000
vn -1.0000 -0.0000 -0.0000
vn 0.4512 -0.8924 -0.0000
vn 0.4802 0.8772 -0.0000
vt 0.623044 0.713542
vt 0.612245 0.666379
vt 0.668953 0.666379
vt 0.412928 0.309609
vt 0.402842 0.356771
vt 0.356771 0.309609
vt 0.668953 0.403933
vt 0.612245 0.403933
vt 0.623044 0.356771
vt 0.356771 0.047162
vt 0.402842 -0.000000
vt 0.412928 0.047162
vt 0.047162 0.309609
vt 0.047162 0.356771
vt -0.000000 0.309609
vt 0.309609 0.356771
vt 0.309609 0.309609
vt 0.356771 0.309609
vt 0.047162 0.356771
vt 0.047162 0.403933
vt 0.000000 0.403933
vt 0.356771 0.403933
vt 0.309609 0.403933
vt 0.309609 0.356771
vt 0.669302 0.356771
vt 0.931749 0.309609
vt 0.931749 0.356771
vt 0.309609 0.047162
vt 0.356771 0.047162
vt 0.309609 0.000000
vt 0.047162 0.047162
vt 0.047162 -0.000000
vt 0.309609 0.666379
vt 0.047162 0.713542
vt 0.047162 0.666379
vt -0.000000 0.666379
vt 0.356771 0.666379
vt 0.931749 0.000000
vt 0.669302 0.047162
vt 0.669302 0.000000
vt 0.000000 0.047162
vt 0.669302 0.619217
vt 0.931749 0.619217
vt 0.356771 0.666379
vt 0.669302 0.047162
vt 0.669302 0.309609
vt -0.000000 1.000000
vt 0.051050 0.713542
vt 0.051050 1.000000
vt 0.304834 0.764592
vt 0.398575 0.760226
vt 0.398575 0.764592
vt 0.492317 1.000000
vt 0.496683 0.713542
vt 0.496682 1.000000
vt 0.492317 0.764592
vt 0.204041 1.000000
vt 0.304834 0.713542
vt 0.304834 1.000000
vt 0.102100 1.000000
vt 0.204041 0.713542
vt 0.204041 1.000000
vt 0.398575 0.772528
vt 0.492317 0.815642
vt 0.504619 0.713542
vt 0.504619 1.000000
vt 0.304834 0.815642
vt 0.102100 0.713542
vt 0.102100 1.000000
vt 0.309609 0.713542
vt 0.931749 0.047162
vt 0.669302 0.356771
vt 0.356771 0.403933
vt 0.000000 0.713542
vt 0.304834 0.713542
vt 0.492317 0.713542
vt 0.492317 0.713542
vt 0.204041 0.713542
vt 0.102100 0.713542
s 0
usemtl Material
f 1/1/1 2/2/1 3/3/1
f 4/4/2 5/5/2 6/6/2
f 7/7/3 8/8/3 9/9/3
f 10/10/4 11/11/4 12/12/4
f 13/13/5 14/14/5 15/15/5
f 16/16/6 17/17/6 18/18/6
f 19/19/7 20/20/7 21/21/7
f 22/22/8 23/23/8 24/24/8
f 22/25/9 16/26/9 18/27/9
f 18/18/10 5/28/10 4/29/10
f 6/30/11 1/31/11 3/32/11
f 20/20/12 24/24/12 23/23/12
f 11/33/13 7/34/13 9/35/13
f 17/17/14 14/14/14 13/13/14
f 21/21/15 9/35/15 8/36/15
f 8/8/16 3/3/16 2/2/16
f 12/37/17 23/23/17 22/22/17
f 15/38/18 19/39/18 21/40/18
f 2/41/19 13/13/19 15/15/19
f 4/4/20 10/10/20 12/12/20
f 13/13/21 5/28/21 17/17/21
f 3/42/22 10/27/22 6/43/22
f 15/44/23 8/8/23 2/2/23
f 4/4/24 22/45/24 18/46/24
f 9/35/25 23/23/25 11/33/25
f 19/39/26 16/26/26 24/46/26
f 22/25/9 24/46/9 16/26/9
f 18/18/10 17/17/10 5/28/10
f 6/30/11 5/28/11 1/31/11
f 20/20/12 19/19/12 24/24/12
f 11/33/13 10/70/13 7/34/13
f 17/17/14 16/16/14 14/14/14
f 21/21/15 20/20/15 9/35/15
f 8/8/16 7/7/16 3/3/16
f 12/37/17 11/33/17 23/23/17
f 15/38/18 14/71/18 19/39/18
f 2/41/19 1/31/19 13/13/19
f 4/4/20 6/6/20 10/10/20
f 13/13/21 1/31/21 5/28/21
f 3/42/22 7/72/22 10/27/22
f 15/44/23 21/73/23 8/8/23
f 4/4/24 12/12/24 22/45/24
f 9/35/25 20/20/25 23/23/25
f 19/39/26 14/71/26 16/26/26
usemtl マテリアル
f 26/47/26 34/48/26 33/49/26
f 34/50/21 32/51/21 35/52/21
f 32/53/22 36/54/22 35/55/22
f 30/51/25 33/56/25 36/52/25
f 31/57/27 25/58/27 27/59/27
f 28/60/28 30/61/28 32/62/28
f 29/63/25 33/56/25 25/64/25
f 35/55/22 29/65/22 31/66/22
f 34/50/21 31/63/21 27/67/21
f 33/49/26 27/68/26 25/69/26
f 26/47/26 28/74/26 34/48/26
f 34/50/21 28/75/21 32/51/21
f 32/53/22 30/76/22 36/54/22
f 30/51/25 26/77/25 33/56/25
f 31/57/27 29/78/27 25/58/27
f 28/60/28 26/79/28 30/61/28
f 29/63/25 36/52/25 33/56/25
f 35/55/22 36/54/22 29/65/22
f 34/50/21 35/52/21 31/63/21
f 33/49/26 34/48/26 27/68/26
