# Blender 5.1.2
# www.blender.org
mtllib Goal.mtl
o 球.001
v 0.031711 -0.887832 0.000000
v 0.031711 -0.922537 -0.225925
v 0.031711 -0.979353 -0.338120
v 0.031711 -1.053587 -0.398840
v 0.047188 -0.891789 -0.077810
v 0.062071 -0.903507 -0.152629
v 0.075787 -0.922537 -0.221584
v 0.087809 -0.948147 -0.282022
v 0.097675 -0.979353 -0.331623
v 0.105006 -1.014956 -0.368480
v 0.109521 -1.053587 -0.391176
v 0.062071 -0.891789 -0.073295
v 0.091264 -0.903507 -0.143774
v 0.118169 -0.922537 -0.208727
v 0.141751 -0.948147 -0.265659
v 0.161104 -0.979353 -0.312382
v 0.175485 -1.014956 -0.347101
v 0.184341 -1.053587 -0.368480
v 0.075787 -0.891789 -0.065964
v 0.118169 -0.903507 -0.129393
v 0.157228 -0.922537 -0.187850
v 0.191464 -0.948147 -0.239087
v 0.219561 -0.979353 -0.281137
v 0.240438 -1.014956 -0.312382
v 0.253295 -1.053587 -0.331623
v 0.087809 -0.891789 -0.056098
v 0.141751 -0.903507 -0.110040
v 0.191464 -0.922537 -0.159753
v 0.235038 -0.948147 -0.203327
v 0.270798 -0.979353 -0.239087
v 0.297370 -1.014956 -0.265659
v 0.313734 -1.053587 -0.282022
v 0.097675 -0.891789 -0.044076
v 0.161104 -0.903507 -0.086458
v 0.219561 -0.922537 -0.125517
v 0.270798 -0.948147 -0.159753
v 0.312848 -0.979353 -0.187849
v 0.344093 -1.014956 -0.208727
v 0.363334 -1.053587 -0.221584
v 0.105006 -0.891789 -0.030360
v 0.175485 -0.903507 -0.059553
v 0.240438 -0.922537 -0.086458
v 0.297370 -0.948147 -0.110040
v 0.344093 -0.979353 -0.129393
v 0.378812 -1.014956 -0.143774
v 0.400191 -1.053587 -0.152629
v 0.109521 -0.891789 -0.015477
v 0.184341 -0.903507 -0.030360
v 0.253295 -0.922537 -0.044076
v 0.313734 -0.948147 -0.056098
v 0.363334 -0.979353 -0.065964
v 0.400191 -1.014956 -0.073295
v 0.422887 -1.053587 -0.077810
v 0.111045 -0.891789 0.000000
v 0.187331 -0.903507 0.000000
v 0.257636 -0.922537 0.000000
v 0.319259 -0.948147 -0.000000
v 0.369831 -0.979353 0.000000
v 0.407410 -1.014956 -0.000000
v 0.430551 -1.053587 0.000000
v 0.109521 -0.891789 0.015477
v 0.184341 -0.903507 0.030360
v 0.253295 -0.922537 0.044076
v 0.313734 -0.948147 0.056098
v 0.363334 -0.979353 0.065964
v 0.400191 -1.014956 0.073295
v 0.422887 -1.053587 0.077810
v 0.105006 -0.891789 0.030360
v 0.175485 -0.903507 0.059553
v 0.240438 -0.922537 0.086458
v 0.297370 -0.948147 0.110040
v 0.344093 -0.979353 0.129393
v 0.378812 -1.014956 0.143774
v 0.400191 -1.053587 0.152629
v 0.097675 -0.891789 0.044076
v 0.161104 -0.903507 0.086458
v 0.219561 -0.922537 0.125517
v 0.270798 -0.948147 0.159753
v 0.312848 -0.979353 0.187850
v 0.344093 -1.014956 0.208727
v 0.363334 -1.053587 0.221584
v 0.087809 -0.891789 0.056098
v 0.141751 -0.903507 0.110040
v 0.191464 -0.922537 0.159753
v 0.235038 -0.948147 0.203327
v 0.270798 -0.979353 0.239087
v 0.297370 -1.014956 0.265659
v 0.313733 -1.053587 0.282022
v 0.075787 -0.891789 0.065964
v 0.118169 -0.903507 0.129393
v 0.157228 -0.922537 0.187850
v 0.191464 -0.948147 0.239087
v 0.219561 -0.979353 0.281137
v 0.240438 -1.014956 0.312382
v 0.253295 -1.053587 0.331623
v 0.062071 -0.891789 0.073295
v 0.091264 -0.903507 0.143774
v 0.118169 -0.922537 0.208727
v 0.141751 -0.948147 0.265659
v 0.161104 -0.979353 0.312382
v 0.175485 -1.014956 0.347101
v 0.184340 -1.053587 0.368480
v 0.047188 -0.891789 0.077810
v 0.062071 -0.903507 0.152629
v 0.075787 -0.922537 0.221584
v 0.087809 -0.948147 0.282022
v 0.097675 -0.979353 0.331623
v 0.105006 -1.014956 0.368480
v 0.109521 -1.053587 0.391176
v 0.031711 -0.891789 0.079334
v 0.031711 -0.903507 0.155620
v 0.031711 -0.922537 0.225925
v 0.031711 -0.948147 0.287548
v 0.031711 -0.979353 0.338120
v 0.031711 -1.014956 0.375699
v 0.031711 -1.053587 0.398840
v 0.016234 -0.891789 0.077810
v 0.001351 -0.903507 0.152629
v -0.012365 -0.922537 0.221584
v -0.024387 -0.948147 0.282022
v -0.034253 -0.979353 0.331623
v -0.041584 -1.014956 0.368480
v -0.046099 -1.053587 0.391176
v 0.001351 -0.891789 0.073295
v -0.027842 -0.903507 0.143774
v -0.054747 -0.922537 0.208727
v -0.078329 -0.948147 0.265659
v -0.097682 -0.979353 0.312382
v -0.112063 -1.014956 0.347101
v -0.120918 -1.053587 0.368480
v -0.012365 -0.891789 0.065964
v -0.054747 -0.903507 0.129393
v -0.093806 -0.922537 0.187849
v -0.128042 -0.948147 0.239087
v -0.156138 -0.979353 0.281137
v -0.177016 -1.014956 0.312382
v -0.189873 -1.053587 0.331623
v -0.024387 -0.891789 0.056098
v -0.078329 -0.903507 0.110040
v -0.128042 -0.922537 0.159753
v -0.171616 -0.948147 0.203327
v -0.207376 -0.979353 0.239087
v -0.233948 -1.014956 0.265659
v -0.250311 -1.053587 0.282022
v -0.034253 -0.891789 0.044076
v -0.097682 -0.903507 0.086458
v -0.156138 -0.922537 0.125517
v -0.207376 -0.948147 0.159753
v -0.249426 -0.979353 0.187849
v -0.280671 -1.014956 0.208727
v -0.299912 -1.053587 0.221583
v -0.041584 -0.891789 0.030360
v -0.112063 -0.903507 0.059553
v -0.177016 -0.922537 0.086458
v -0.233948 -0.948147 0.110040
v -0.280671 -0.979353 0.129393
v -0.315389 -1.014956 0.143774
v -0.336769 -1.053587 0.152629
v -0.046099 -0.891789 0.015477
v -0.120918 -0.903507 0.030360
v -0.189872 -0.922537 0.044076
v -0.250311 -0.948147 0.056098
v -0.299912 -0.979353 0.065964
v -0.336769 -1.014956 0.073295
v -0.359465 -1.053587 0.077810
v -0.047623 -0.891789 -0.000000
v -0.123908 -0.903507 -0.000000
v -0.194213 -0.922537 -0.000000
v -0.255836 -0.948147 -0.000000
v -0.306409 -0.979353 -0.000000
v -0.343988 -1.014956 -0.000000
v -0.367129 -1.053587 -0.000000
v -0.046099 -0.891789 -0.015477
v -0.120918 -0.903507 -0.030360
v -0.189872 -0.922537 -0.044076
v -0.250311 -0.948147 -0.056098
v -0.299912 -0.979353 -0.065964
v -0.336769 -1.014956 -0.073295
v -0.359465 -1.053587 -0.077810
v -0.041584 -0.891789 -0.030360
v -0.112063 -0.903507 -0.059553
v -0.177016 -0.922537 -0.086458
v -0.233948 -0.948147 -0.110040
v -0.280671 -0.979353 -0.129393
v -0.315389 -1.014956 -0.143774
v -0.336769 -1.053587 -0.152629
v -0.034253 -0.891789 -0.044076
v -0.097682 -0.903507 -0.086458
v -0.156138 -0.922537 -0.125517
v -0.207376 -0.948147 -0.159753
v -0.249425 -0.979353 -0.187849
v -0.280671 -1.014956 -0.208727
v -0.299912 -1.053587 -0.221584
v -0.024387 -0.891789 -0.056098
v -0.078329 -0.903507 -0.110040
v -0.128042 -0.922537 -0.159753
v -0.171616 -0.948147 -0.203327
v -0.207376 -0.979353 -0.239087
v -0.233948 -1.014956 -0.265659
v -0.250311 -1.053587 -0.282022
v -0.012365 -0.891789 -0.065964
v -0.054746 -0.903507 -0.129393
v -0.093806 -0.922537 -0.187849
v -0.128042 -0.948147 -0.239087
v -0.156138 -0.979353 -0.281137
v -0.177016 -1.014956 -0.312382
v -0.189872 -1.053587 -0.331623
v 0.001351 -0.891789 -0.073295
v -0.027842 -0.903507 -0.143774
v -0.054746 -0.922537 -0.208727
v -0.078329 -0.948147 -0.265659
v -0.097682 -0.979353 -0.312382
v -0.112063 -1.014956 -0.347101
v -0.120918 -1.053587 -0.368480
v 0.016234 -0.891789 -0.077810
v 0.001351 -0.903507 -0.152629
v -0.012364 -0.922537 -0.221583
v -0.024387 -0.948147 -0.282022
v -0.034253 -0.979353 -0.331623
v -0.041584 -1.014956 -0.368480
v -0.046099 -1.053587 -0.391176
v 0.031711 -0.891789 -0.079334
v 0.031711 -0.903507 -0.155620
v 0.031711 -0.948147 -0.287548
v 0.031711 -1.014956 -0.375699
v 0.030316 -0.959960 -0.102022
v 0.030316 0.573356 -0.102022
v 0.048843 -0.959960 -0.100062
v 0.048843 0.573356 -0.100062
v 0.066658 -0.959960 -0.094256
v 0.066658 0.573356 -0.094256
v 0.083076 -0.959960 -0.084828
v 0.083076 0.573356 -0.084828
v 0.097467 -0.959960 -0.072140
v 0.097467 0.573356 -0.072140
v 0.109277 -0.959960 -0.056680
v 0.109277 0.573356 -0.056680
v 0.118053 -0.959960 -0.039042
v 0.118053 0.573356 -0.039042
v 0.123457 -0.959960 -0.019903
v 0.123457 0.573356 -0.019903
v 0.125282 -0.959960 0.000000
v 0.125282 0.573356 0.000000
v 0.123457 -0.959960 0.019903
v 0.123457 0.573356 0.019903
v 0.118053 -0.959960 0.039042
v 0.118053 0.573356 0.039042
v 0.109277 -0.959960 0.056680
v 0.109277 0.573356 0.056680
v 0.097467 -0.959960 0.072140
v 0.097467 0.573356 0.072140
v 0.083076 -0.959960 0.084828
v 0.083076 0.573356 0.084828
v 0.066658 -0.959960 0.094256
v 0.066658 0.573356 0.094256
v 0.048843 -0.959960 0.100062
v 0.048843 0.573356 0.100062
v 0.030316 -0.959960 0.102022
v 0.030316 0.573356 0.102022
v 0.011789 -0.959960 0.100062
v 0.011789 0.573356 0.100062
v -0.006026 -0.959960 0.094256
v -0.006026 0.573356 0.094256
v -0.022444 -0.959960 0.084828
v -0.022444 0.573356 0.084828
v -0.036835 -0.959960 0.072140
v -0.036835 0.573356 0.072140
v -0.048645 -0.959960 0.056680
v -0.048645 0.573356 0.056680
v -0.057421 -0.959960 0.039042
v -0.057421 0.573356 0.039042
v -0.062825 -0.959960 0.019903
v -0.062825 0.573356 0.019903
v -0.064650 -0.959960 0.000000
v -0.064650 0.573356 0.000000
v -0.062825 -0.959960 -0.019903
v -0.062825 0.573356 -0.019903
v -0.057421 -0.959960 -0.039042
v -0.057421 0.573356 -0.039042
v -0.048645 -0.959960 -0.056680
v -0.048645 0.573356 -0.056680
v -0.036835 -0.959960 -0.072140
v -0.036835 0.573356 -0.072140
v -0.022444 -0.959960 -0.084828
v -0.022444 0.573356 -0.084828
v -0.006026 -0.959960 -0.094256
v -0.006026 0.573356 -0.094256
v 0.011789 -0.959960 -0.100062
v 0.011789 0.573356 -0.100062
v 0.027509 0.796513 0.000000
v 0.027509 0.773951 -0.074376
v 0.027509 0.737015 -0.111312
v 0.027509 0.688757 -0.131301
v 0.027509 0.662639 -0.133873
v 0.027509 0.636522 -0.131301
v 0.027509 0.588264 -0.111312
v 0.027509 0.528766 0.000000
v 0.032604 0.793940 -0.025616
v 0.037504 0.786322 -0.050247
v 0.042019 0.773951 -0.072947
v 0.045977 0.757302 -0.092844
v 0.049225 0.737015 -0.109173
v 0.051638 0.713871 -0.121306
v 0.053124 0.688757 -0.128778
v 0.053626 0.662639 -0.131301
v 0.053124 0.636522 -0.128778
v 0.051638 0.611408 -0.121306
v 0.049225 0.588264 -0.109173
v 0.045977 0.567977 -0.092844
v 0.042019 0.551328 -0.072947
v 0.037504 0.538957 -0.050247
v 0.032604 0.531339 -0.025616
v 0.037504 0.793940 -0.024129
v 0.047114 0.786322 -0.047331
v 0.055971 0.773951 -0.068714
v 0.063735 0.757302 -0.087457
v 0.070106 0.737015 -0.102838
v 0.074840 0.713871 -0.114268
v 0.077756 0.688757 -0.121306
v 0.078740 0.662639 -0.123683
v 0.077756 0.636522 -0.121306
v 0.074840 0.611408 -0.114268
v 0.070106 0.588264 -0.102838
v 0.063735 0.567977 -0.087457
v 0.055971 0.551328 -0.068714
v 0.047114 0.538957 -0.047331
v 0.037504 0.531339 -0.024129
v 0.042019 0.793940 -0.021716
v 0.055971 0.786322 -0.042597
v 0.068830 0.773951 -0.061841
v 0.080101 0.757302 -0.078709
v 0.089350 0.737015 -0.092552
v 0.096223 0.713871 -0.102838
v 0.100456 0.688757 -0.109173
v 0.101885 0.662639 -0.111312
v 0.100456 0.636522 -0.109173
v 0.096223 0.611408 -0.102838
v 0.089350 0.588264 -0.092552
v 0.080101 0.567977 -0.078709
v 0.068830 0.551328 -0.061841
v 0.055971 0.538957 -0.042597
v 0.042019 0.531339 -0.021716
v 0.045977 0.793940 -0.018468
v 0.063735 0.786322 -0.036226
v 0.080101 0.773951 -0.052592
v 0.094446 0.757302 -0.066937
v 0.106218 0.737015 -0.078709
v 0.114966 0.713871 -0.087457
v 0.120353 0.688757 -0.092844
v 0.122172 0.662639 -0.094663
v 0.120353 0.636522 -0.092844
v 0.114966 0.611408 -0.087457
v 0.106218 0.588264 -0.078709
v 0.094446 0.567977 -0.066937
v 0.080101 0.551328 -0.052592
v 0.063735 0.538957 -0.036226
v 0.045977 0.531339 -0.018468
v 0.049225 0.793940 -0.014510
v 0.070106 0.786322 -0.028462
v 0.089350 0.773951 -0.041321
v 0.106218 0.757302 -0.052592
v 0.120061 0.737015 -0.061841
v 0.130347 0.713871 -0.068714
v 0.136682 0.688757 -0.072947
v 0.138820 0.662639 -0.074376
v 0.136682 0.636522 -0.072947
v 0.130347 0.611408 -0.068714
v 0.120061 0.588264 -0.061841
v 0.106218 0.567977 -0.052592
v 0.089350 0.551328 -0.041321
v 0.070106 0.538957 -0.028462
v 0.049225 0.531339 -0.014510
v 0.051638 0.793940 -0.009995
v 0.074840 0.786322 -0.019605
v 0.096223 0.773951 -0.028462
v 0.114966 0.757302 -0.036226
v 0.130347 0.737015 -0.042597
v 0.141777 0.713871 -0.047331
v 0.148815 0.688757 -0.050247
v 0.151192 0.662639 -0.051231
v 0.148815 0.636522 -0.050247
v 0.141777 0.611408 -0.047331
v 0.130347 0.588264 -0.042597
v 0.114966 0.567977 -0.036226
v 0.096223 0.551328 -0.028462
v 0.074840 0.538957 -0.019605
v 0.051638 0.531339 -0.009995
v 0.053124 0.793940 -0.005095
v 0.077756 0.786322 -0.009995
v 0.100456 0.773951 -0.014510
v 0.120353 0.757302 -0.018468
v 0.136682 0.737015 -0.021716
v 0.148815 0.713871 -0.024129
v 0.156287 0.688757 -0.025616
v 0.158810 0.662639 -0.026117
v 0.156287 0.636522 -0.025616
v 0.148815 0.611408 -0.024129
v 0.136682 0.588264 -0.021716
v 0.120353 0.567977 -0.018468
v 0.100456 0.551328 -0.014510
v 0.077756 0.538957 -0.009995
v 0.053124 0.531339 -0.005095
v 0.053626 0.793940 0.000000
v 0.078740 0.786322 0.000000
v 0.101885 0.773951 0.000000
v 0.122172 0.757302 -0.000000
v 0.138820 0.737015 0.000000
v 0.151192 0.713871 -0.000000
v 0.158810 0.688757 0.000000
v 0.161382 0.662639 0.000000
v 0.158810 0.636522 0.000000
v 0.151192 0.611408 -0.000000
v 0.138820 0.588264 0.000000
v 0.122172 0.567977 -0.000000
v 0.101885 0.551328 0.000000
v 0.078740 0.538957 0.000000
v 0.053626 0.531339 0.000000
v 0.053124 0.793940 0.005095
v 0.077756 0.786322 0.009995
v 0.100456 0.773951 0.014510
v 0.120353 0.757302 0.018468
v 0.136682 0.737015 0.021716
v 0.148815 0.713871 0.024129
v 0.156287 0.688757 0.025616
v 0.158810 0.662639 0.026117
v 0.156287 0.636522 0.025616
v 0.148815 0.611408 0.024129
v 0.136682 0.588264 0.021716
v 0.120353 0.567977 0.018468
v 0.100456 0.551328 0.014510
v 0.077756 0.538957 0.009995
v 0.053124 0.531339 0.005095
v 0.051638 0.793940 0.009995
v 0.074840 0.786322 0.019605
v 0.096223 0.773951 0.028462
v 0.114966 0.757302 0.036226
v 0.130347 0.737015 0.042597
v 0.141777 0.713871 0.047331
v 0.148815 0.688757 0.050247
v 0.151192 0.662639 0.051231
v 0.148815 0.636522 0.050247
v 0.141777 0.611408 0.047331
v 0.130347 0.588264 0.042597
v 0.114966 0.567977 0.036226
v 0.096223 0.551328 0.028462
v 0.074840 0.538957 0.019605
v 0.051638 0.531339 0.009995
v 0.049225 0.793940 0.014510
v 0.070106 0.786322 0.028462
v 0.089350 0.773951 0.041321
v 0.106218 0.757302 0.052592
v 0.120061 0.737015 0.061841
v 0.130347 0.713871 0.068714
v 0.136682 0.688757 0.072947
v 0.138820 0.662639 0.074376
v 0.136682 0.636522 0.072947
v 0.130347 0.611408 0.068714
v 0.120061 0.588264 0.061841
v 0.106218 0.567977 0.052592
v 0.089350 0.551328 0.041321
v 0.070106 0.538957 0.028462
v 0.049225 0.531339 0.014510
v 0.045977 0.793940 0.018468
v 0.063735 0.786322 0.036226
v 0.080101 0.773951 0.052592
v 0.094446 0.757302 0.066937
v 0.106218 0.737015 0.078709
v 0.114966 0.713871 0.087457
v 0.120353 0.688757 0.092844
v 0.122172 0.662639 0.094663
v 0.120353 0.636522 0.092844
v 0.114966 0.611408 0.087457
v 0.106218 0.588264 0.078709
v 0.094446 0.567977 0.066937
v 0.080101 0.551328 0.052592
v 0.063735 0.538957 0.036226
v 0.045977 0.531339 0.018468
v 0.042019 0.793940 0.021716
v 0.055971 0.786322 0.042597
v 0.068830 0.773951 0.061841
v 0.080101 0.757302 0.078709
v 0.089350 0.737015 0.092552
v 0.096223 0.713871 0.102838
v 0.100456 0.688757 0.109173
v 0.101885 0.662639 0.111312
v 0.100456 0.636522 0.109173
v 0.096223 0.611408 0.102838
v 0.089350 0.588264 0.092552
v 0.080101 0.567977 0.078709
v 0.068830 0.551328 0.061841
v 0.055971 0.538957 0.042597
v 0.042019 0.531339 0.021716
v 0.037504 0.793940 0.024129
v 0.047114 0.786322 0.047331
v 0.055971 0.773951 0.068714
v 0.063735 0.757302 0.087457
v 0.070106 0.737015 0.102838
v 0.074840 0.713871 0.114268
v 0.077756 0.688757 0.121306
v 0.078740 0.662639 0.123683
v 0.077756 0.636522 0.121306
v 0.074840 0.611408 0.114268
v 0.070106 0.588264 0.102838
v 0.063735 0.567977 0.087457
v 0.055971 0.551328 0.068714
v 0.047114 0.538957 0.047331
v 0.037504 0.531339 0.024129
v 0.032604 0.793940 0.025616
v 0.037504 0.786322 0.050247
v 0.042019 0.773951 0.072947
v 0.045977 0.757302 0.092844
v 0.049225 0.737015 0.109173
v 0.051638 0.713871 0.121306
v 0.053124 0.688757 0.128778
v 0.053626 0.662639 0.131301
v 0.053124 0.636522 0.128778
v 0.051638 0.611408 0.121306
v 0.049225 0.588264 0.109173
v 0.045977 0.567977 0.092844
v 0.042019 0.551328 0.072947
v 0.037504 0.538957 0.050247
v 0.032604 0.531339 0.025616
v 0.027509 0.793940 0.026117
v 0.027509 0.786322 0.051231
v 0.027509 0.773951 0.074376
v 0.027509 0.757302 0.094663
v 0.027509 0.737015 0.111312
v 0.027509 0.713871 0.123683
v 0.027509 0.688757 0.131301
v 0.027509 0.662639 0.133873
v 0.027509 0.636522 0.131301
v 0.027509 0.611408 0.123683
v 0.027509 0.588264 0.111312
v 0.027509 0.567977 0.094663
v 0.027509 0.551328 0.074376
v 0.027509 0.538957 0.051231
v 0.027509 0.531339 0.026117
v 0.022414 0.793940 0.025616
v 0.017514 0.786322 0.050247
v 0.012999 0.773951 0.072947
v 0.009041 0.757302 0.092844
v 0.005793 0.737015 0.109173
v 0.003380 0.713871 0.121306
v 0.001893 0.688757 0.128778
v 0.001392 0.662639 0.131301
v 0.001893 0.636522 0.128778
v 0.003380 0.611408 0.121306
v 0.005793 0.588264 0.109173
v 0.009041 0.567977 0.092844
v 0.012999 0.551328 0.072947
v 0.017514 0.538957 0.050247
v 0.022414 0.531339 0.025616
v 0.017514 0.793940 0.024129
v 0.007904 0.786322 0.047331
v -0.000954 0.773951 0.068714
v -0.008717 0.757302 0.087457
v -0.015088 0.737015 0.102838
v -0.019822 0.713871 0.114268
v -0.022738 0.688757 0.121306
v -0.023722 0.662639 0.123683
v -0.022738 0.636522 0.121306
v -0.019822 0.611408 0.114268
v -0.015088 0.588264 0.102838
v -0.008717 0.567977 0.087457
v -0.000954 0.551328 0.068714
v 0.007904 0.538957 0.047331
v 0.017514 0.531339 0.024129
v 0.012999 0.793940 0.021716
v -0.000954 0.786322 0.042597
v -0.013812 0.773951 0.061841
v -0.025083 0.757302 0.078709
v -0.034332 0.737015 0.092552
v -0.041206 0.713871 0.102838
v -0.045438 0.688757 0.109173
v -0.046867 0.662639 0.111311
v -0.045438 0.636522 0.109173
v -0.041206 0.611408 0.102838
v -0.034332 0.588264 0.092552
v -0.025083 0.567977 0.078709
v -0.013812 0.551328 0.061841
v -0.000954 0.538957 0.042597
v 0.012999 0.531339 0.021716
v 0.009041 0.793940 0.018468
v -0.008717 0.786322 0.036226
v -0.025083 0.773951 0.052592
v -0.039428 0.757302 0.066937
v -0.051200 0.737015 0.078709
v -0.059948 0.713871 0.087457
v -0.065335 0.688757 0.092844
v -0.067154 0.662639 0.094663
v -0.065335 0.636522 0.092844
v -0.059948 0.611408 0.087457
v -0.051200 0.588264 0.078709
v -0.039428 0.567977 0.066937
v -0.025083 0.551328 0.052592
v -0.008717 0.538957 0.036226
v 0.009041 0.531339 0.018468
v 0.005793 0.793940 0.014510
v -0.015088 0.786322 0.028462
v -0.034332 0.773951 0.041321
v -0.051200 0.757302 0.052592
v -0.065043 0.737015 0.061841
v -0.075329 0.713871 0.068714
v -0.081664 0.688757 0.072947
v -0.083803 0.662639 0.074376
v -0.081664 0.636522 0.072947
v -0.075329 0.611408 0.068714
v -0.065043 0.588264 0.061841
v -0.051200 0.567977 0.052592
v -0.034332 0.551328 0.041321
v -0.015088 0.538957 0.028462
v 0.005793 0.531339 0.014510
v 0.003380 0.793940 0.009995
v -0.019822 0.786322 0.019605
v -0.041205 0.773951 0.028462
v -0.059948 0.757302 0.036226
v -0.075329 0.737015 0.042597
v -0.086759 0.713871 0.047331
v -0.093797 0.688757 0.050247
v -0.096174 0.662639 0.051231
v -0.093797 0.636522 0.050247
v -0.086759 0.611408 0.047331
v -0.075329 0.588264 0.042597
v -0.059948 0.567977 0.036226
v -0.041205 0.551328 0.028462
v -0.019822 0.538957 0.019605
v 0.003380 0.531339 0.009995
v 0.001893 0.793940 0.005095
v -0.022738 0.786322 0.009995
v -0.045438 0.773951 0.014510
v -0.065335 0.757302 0.018468
v -0.081664 0.737015 0.021716
v -0.093797 0.713871 0.024129
v -0.101269 0.688757 0.025615
v -0.103792 0.662639 0.026117
v -0.101269 0.636522 0.025615
v -0.093797 0.611408 0.024129
v -0.081664 0.588264 0.021716
v -0.065335 0.567977 0.018468
v -0.045438 0.551328 0.014510
v -0.022738 0.538957 0.009995
v 0.001893 0.531339 0.005095
v 0.001392 0.793940 -0.000000
v -0.023722 0.786322 -0.000000
v -0.046867 0.773951 -0.000000
v -0.067154 0.757302 -0.000000
v -0.083803 0.737015 -0.000000
v -0.096174 0.713871 -0.000000
v -0.103792 0.688757 -0.000000
v -0.106364 0.662639 -0.000000
v -0.103792 0.636522 -0.000000
v -0.096174 0.611408 -0.000000
v -0.083803 0.588264 -0.000000
v -0.067154 0.567977 -0.000000
v -0.046867 0.551328 -0.000000
v -0.023722 0.538957 -0.000000
v 0.001392 0.531339 -0.000000
v 0.001893 0.793940 -0.005095
v -0.022738 0.786322 -0.009995
v -0.045438 0.773951 -0.014510
v -0.065335 0.757302 -0.018468
v -0.081664 0.737015 -0.021716
v -0.093797 0.713871 -0.024129
v -0.101269 0.688757 -0.025616
v -0.103792 0.662639 -0.026117
v -0.101269 0.636522 -0.025616
v -0.093797 0.611408 -0.024129
v -0.081664 0.588264 -0.021716
v -0.065335 0.567977 -0.018468
v -0.045438 0.551328 -0.014510
v -0.022738 0.538957 -0.009995
v 0.001893 0.531339 -0.005095
v 0.003380 0.793940 -0.009995
v -0.019822 0.786322 -0.019605
v -0.041205 0.773951 -0.028462
v -0.059948 0.757302 -0.036226
v -0.075329 0.737015 -0.042597
v -0.086759 0.713871 -0.047331
v -0.093797 0.688757 -0.050247
v -0.096174 0.662639 -0.051231
v -0.093797 0.636522 -0.050247
v -0.086759 0.611408 -0.047331
v -0.075329 0.588264 -0.042597
v -0.059948 0.567977 -0.036226
v -0.041205 0.551328 -0.028462
v -0.019822 0.538957 -0.019605
v 0.003380 0.531339 -0.009995
v 0.005793 0.793940 -0.014510
v -0.015088 0.786322 -0.028462
v -0.034332 0.773951 -0.041321
v -0.051200 0.757302 -0.052592
v -0.065043 0.737015 -0.061841
v -0.075329 0.713871 -0.068714
v -0.081664 0.688757 -0.072947
v -0.083802 0.662639 -0.074376
v -0.081664 0.636522 -0.072947
v -0.075329 0.611408 -0.068714
v -0.065043 0.588264 -0.061841
v -0.051200 0.567977 -0.052592
v -0.034332 0.551328 -0.041321
v -0.015088 0.538957 -0.028462
v 0.005793 0.531339 -0.014510
v 0.009041 0.793940 -0.018468
v -0.008717 0.786322 -0.036226
v -0.025083 0.773951 -0.052592
v -0.039428 0.757302 -0.066937
v -0.051200 0.737015 -0.078709
v -0.059948 0.713871 -0.087457
v -0.065335 0.688757 -0.092844
v -0.067154 0.662639 -0.094663
v -0.065335 0.636522 -0.092844
v -0.059948 0.611408 -0.087457
v -0.051200 0.588264 -0.078709
v -0.039428 0.567977 -0.066937
v -0.025083 0.551328 -0.052592
v -0.008717 0.538957 -0.036226
v 0.009041 0.531339 -0.018468
v 0.012999 0.793940 -0.021716
v -0.000954 0.786322 -0.042597
v -0.013812 0.773951 -0.061841
v -0.025083 0.757302 -0.078709
v -0.034332 0.737015 -0.092552
v -0.041205 0.713871 -0.102838
v -0.045438 0.688757 -0.109173
v -0.046867 0.662639 -0.111311
v -0.045438 0.636522 -0.109173
v -0.041205 0.611408 -0.102838
v -0.034332 0.588264 -0.092552
v -0.025083 0.567977 -0.078709
v -0.013812 0.551328 -0.061841
v -0.000954 0.538957 -0.042597
v 0.012999 0.531339 -0.021716
v 0.017514 0.793940 -0.024129
v 0.007904 0.786322 -0.047331
v -0.000953 0.773951 -0.068714
v -0.008717 0.757302 -0.087457
v -0.015088 0.737015 -0.102838
v -0.019822 0.713871 -0.114268
v -0.022738 0.688757 -0.121306
v -0.023722 0.662639 -0.123683
v -0.022738 0.636522 -0.121306
v -0.019822 0.611408 -0.114268
v -0.015088 0.588264 -0.102838
v -0.008717 0.567977 -0.087457
v -0.000953 0.551328 -0.068714
v 0.007904 0.538957 -0.047331
v 0.017514 0.531339 -0.024129
v 0.022414 0.793940 -0.025616
v 0.017514 0.786322 -0.050247
v 0.012999 0.773951 -0.072947
v 0.009041 0.757302 -0.092844
v 0.005793 0.737015 -0.109173
v 0.003380 0.713871 -0.121306
v 0.001893 0.688757 -0.128778
v 0.001392 0.662639 -0.131301
v 0.001893 0.636522 -0.128778
v 0.003380 0.611408 -0.121306
v 0.005793 0.588264 -0.109173
v 0.009041 0.567977 -0.092844
v 0.012999 0.551328 -0.072947
v 0.017514 0.538957 -0.050247
v 0.022414 0.531339 -0.025616
v 0.027509 0.793940 -0.026117
v 0.027509 0.786322 -0.051231
v 0.027509 0.757302 -0.094663
v 0.027509 0.713871 -0.123683
v 0.027509 0.611408 -0.123683
v 0.027509 0.567977 -0.094663
v 0.027509 0.551328 -0.074376
v 0.027509 0.538957 -0.051231
v 0.027509 0.531339 -0.026117
v 0.115049 0.003579 0.038019
v 0.115049 0.542989 0.038019
v 0.115049 0.003579 -0.026816
v 0.115049 0.542989 -0.026816
v 0.715049 0.298905 0.038019
v 0.715049 0.323972 0.038019
v 0.715049 0.298905 -0.026816
v 0.715049 0.323972 -0.026816
vn 0.0049 0.9987 -0.0498
vn 0.0150 0.9883 -0.1518
vn 0.0257 0.9649 -0.2612
vn 0.0378 0.9228 -0.3835
vn 0.0517 0.8499 -0.5244
vn 0.0676 0.7243 -0.6862
vn 0.0842 0.5121 -0.8548
vn 0.2002 0.7243 -0.6598
vn 0.2493 0.5121 -0.8220
vn 0.0145 0.9987 -0.0479
vn 0.0443 0.9883 -0.1460
vn 0.0762 0.9649 -0.2512
vn 0.1119 0.9228 -0.3688
vn 0.1530 0.8499 -0.5043
vn 0.1237 0.9649 -0.2315
vn 0.1817 0.9228 -0.3398
vn 0.2484 0.8499 -0.4647
vn 0.3250 0.7243 -0.6081
vn 0.4049 0.5121 -0.7575
vn 0.0236 0.9987 -0.0441
vn 0.0719 0.9883 -0.1345
vn 0.5449 0.5121 -0.6640
vn 0.0318 0.9987 -0.0387
vn 0.0968 0.9883 -0.1179
vn 0.1665 0.9649 -0.2029
vn 0.2445 0.9228 -0.2979
vn 0.3343 0.8499 -0.4073
vn 0.4374 0.7243 -0.5330
vn 0.2979 0.9228 -0.2445
vn 0.4073 0.8499 -0.3343
vn 0.5330 0.7243 -0.4374
vn 0.6640 0.5121 -0.5449
vn 0.0387 0.9987 -0.0318
vn 0.1179 0.9883 -0.0968
vn 0.2029 0.9649 -0.1665
vn 0.0441 0.9987 -0.0236
vn 0.1345 0.9883 -0.0719
vn 0.2315 0.9649 -0.1237
vn 0.3398 0.9228 -0.1817
vn 0.4647 0.8499 -0.2484
vn 0.6081 0.7243 -0.3250
vn 0.7575 0.5121 -0.4049
vn 0.3688 0.9228 -0.1119
vn 0.5043 0.8499 -0.1530
vn 0.6598 0.7243 -0.2002
vn 0.8220 0.5121 -0.2493
vn 0.0479 0.9987 -0.0145
vn 0.1460 0.9883 -0.0443
vn 0.2512 0.9649 -0.0762
vn 0.0498 0.9987 -0.0049
vn 0.1518 0.9883 -0.0150
vn 0.2612 0.9649 -0.0257
vn 0.3835 0.9228 -0.0378
vn 0.5244 0.8499 -0.0517
vn 0.6862 0.7243 -0.0676
vn 0.8548 0.5121 -0.0842
vn 0.5244 0.8499 0.0517
vn 0.6862 0.7243 0.0676
vn 0.8548 0.5121 0.0842
vn 0.0498 0.9987 0.0049
vn 0.1518 0.9883 0.0150
vn 0.2612 0.9649 0.0257
vn 0.3835 0.9228 0.0378
vn 0.0479 0.9987 0.0145
vn 0.1460 0.9883 0.0443
vn 0.2512 0.9649 0.0762
vn 0.3688 0.9228 0.1119
vn 0.5043 0.8499 0.1530
vn 0.6598 0.7243 0.2002
vn 0.8220 0.5121 0.2493
vn 0.4647 0.8499 0.2484
vn 0.6081 0.7243 0.3250
vn 0.7575 0.5121 0.4049
vn 0.0441 0.9987 0.0236
vn 0.1345 0.9883 0.0719
vn 0.2315 0.9649 0.1237
vn 0.3398 0.9228 0.1817
vn 0.1179 0.9883 0.0968
vn 0.2029 0.9649 0.1665
vn 0.2979 0.9228 0.2445
vn 0.4073 0.8499 0.3343
vn 0.5330 0.7243 0.4374
vn 0.6640 0.5121 0.5449
vn 0.0387 0.9987 0.0318
vn 0.4374 0.7243 0.5330
vn 0.5449 0.5121 0.6640
vn 0.0318 0.9987 0.0387
vn 0.0968 0.9883 0.1179
vn 0.1665 0.9649 0.2029
vn 0.2445 0.9228 0.2979
vn 0.3343 0.8499 0.4073
vn 0.1237 0.9649 0.2315
vn 0.1817 0.9228 0.3398
vn 0.2484 0.8499 0.4647
vn 0.3250 0.7243 0.6081
vn 0.4049 0.5121 0.7575
vn 0.0236 0.9987 0.0441
vn 0.0719 0.9883 0.1345
vn 0.2493 0.5121 0.8220
vn 0.0145 0.9987 0.0479
vn 0.0443 0.9883 0.1460
vn 0.0762 0.9649 0.2512
vn 0.1119 0.9228 0.3688
vn 0.1530 0.8499 0.5043
vn 0.2002 0.7243 0.6598
vn 0.0257 0.9649 0.2612
vn 0.0378 0.9228 0.3835
vn 0.0517 0.8499 0.5244
vn 0.0676 0.7243 0.6862
vn 0.0842 0.5121 0.8548
vn 0.0049 0.9987 0.0498
vn 0.0150 0.9883 0.1518
vn -0.0842 0.5121 0.8548
vn -0.0049 0.9987 0.0498
vn -0.0150 0.9883 0.1518
vn -0.0257 0.9649 0.2612
vn -0.0378 0.9228 0.3835
vn -0.0517 0.8499 0.5244
vn -0.0676 0.7243 0.6862
vn -0.1119 0.9228 0.3688
vn -0.1530 0.8499 0.5043
vn -0.2002 0.7243 0.6598
vn -0.2493 0.5121 0.8220
vn -0.0145 0.9987 0.0479
vn -0.0443 0.9883 0.1460
vn -0.0762 0.9649 0.2512
vn -0.0236 0.9987 0.0441
vn -0.0719 0.9883 0.1345
vn -0.1237 0.9649 0.2315
vn -0.1817 0.9228 0.3398
vn -0.2484 0.8499 0.4647
vn -0.3250 0.7243 0.6081
vn -0.4049 0.5121 0.7575
vn -0.2445 0.9228 0.2979
vn -0.3343 0.8499 0.4073
vn -0.4374 0.7243 0.5330
vn -0.5449 0.5121 0.6640
vn -0.0318 0.9987 0.0387
vn -0.0968 0.9883 0.1179
vn -0.1665 0.9649 0.2029
vn -0.0387 0.9987 0.0318
vn -0.1179 0.9883 0.0968
vn -0.2029 0.9649 0.1665
vn -0.2979 0.9228 0.2445
vn -0.4073 0.8499 0.3343
vn -0.5330 0.7243 0.4374
vn -0.6640 0.5121 0.5449
vn -0.4647 0.8499 0.2484
vn -0.6081 0.7243 0.3250
vn -0.7575 0.5121 0.4049
vn -0.0441 0.9987 0.0236
vn -0.1345 0.9883 0.0719
vn -0.2315 0.9649 0.1237
vn -0.3398 0.9228 0.1817
vn -0.1460 0.9883 0.0443
vn -0.2512 0.9649 0.0762
vn -0.3688 0.9228 0.1119
vn -0.5043 0.8499 0.1530
vn -0.6598 0.7243 0.2002
vn -0.8220 0.5121 0.2493
vn -0.0479 0.9987 0.0145
vn -0.6862 0.7243 0.0676
vn -0.8548 0.5121 0.0842
vn -0.0498 0.9987 0.0049
vn -0.1518 0.9883 0.0150
vn -0.2612 0.9649 0.0257
vn -0.3835 0.9228 0.0378
vn -0.5244 0.8499 0.0517
vn -0.1518 0.9883 -0.0150
vn -0.2612 0.9649 -0.0257
vn -0.3835 0.9228 -0.0378
vn -0.5244 0.8499 -0.0517
vn -0.6862 0.7243 -0.0676
vn -0.8548 0.5121 -0.0842
vn -0.0498 0.9987 -0.0049
vn -0.6598 0.7243 -0.2002
vn -0.8220 0.5121 -0.2493
vn -0.0479 0.9987 -0.0145
vn -0.1460 0.9883 -0.0443
vn -0.2512 0.9649 -0.0762
vn -0.3688 0.9228 -0.1119
vn -0.5043 0.8499 -0.1530
vn -0.2315 0.9649 -0.1237
vn -0.3398 0.9228 -0.1817
vn -0.4647 0.8499 -0.2484
vn -0.6081 0.7243 -0.3250
vn -0.7575 0.5121 -0.4049
vn -0.0441 0.9987 -0.0236
vn -0.1345 0.9883 -0.0719
vn -0.6640 0.5121 -0.5449
vn -0.0387 0.9987 -0.0318
vn -0.1179 0.9883 -0.0968
vn -0.2029 0.9649 -0.1665
vn -0.2979 0.9228 -0.2445
vn -0.4073 0.8499 -0.3343
vn -0.5330 0.7243 -0.4374
vn -0.1665 0.9649 -0.2029
vn -0.2445 0.9228 -0.2979
vn -0.3343 0.8499 -0.4073
vn -0.4374 0.7243 -0.5330
vn -0.5449 0.5121 -0.6640
vn -0.0318 0.9987 -0.0387
vn -0.0968 0.9883 -0.1179
vn -0.4049 0.5121 -0.7575
vn -0.0236 0.9987 -0.0441
vn -0.0719 0.9883 -0.1345
vn -0.1237 0.9649 -0.2315
vn -0.1817 0.9228 -0.3398
vn -0.2484 0.8499 -0.4647
vn -0.3250 0.7243 -0.6081
vn -0.1119 0.9228 -0.3688
vn -0.1530 0.8499 -0.5043
vn -0.2002 0.7243 -0.6598
vn -0.2493 0.5121 -0.8220
vn -0.0145 0.9987 -0.0479
vn -0.0443 0.9883 -0.1460
vn -0.0762 0.9649 -0.2512
vn -0.0049 0.9987 -0.0498
vn -0.0150 0.9883 -0.1518
vn -0.0257 0.9649 -0.2612
vn -0.0378 0.9228 -0.3835
vn -0.0517 0.8499 -0.5244
vn -0.0676 0.7243 -0.6862
vn -0.0842 0.5121 -0.8548
vn 0.1052 -0.0000 -0.9944
vn 0.3098 -0.0000 -0.9508
vn 0.4980 -0.0000 -0.8672
vn 0.6613 -0.0000 -0.7501
vn 0.7947 -0.0000 -0.6071
vn 0.8953 -0.0000 -0.4455
vn 0.9624 -0.0000 -0.2717
vn 0.9958 -0.0000 -0.0913
vn 0.9958 -0.0000 0.0913
vn 0.9624 -0.0000 0.2717
vn 0.8953 -0.0000 0.4455
vn 0.7947 -0.0000 0.6071
vn 0.6613 -0.0000 0.7501
vn 0.4980 -0.0000 0.8672
vn 0.3098 -0.0000 0.9508
vn 0.1052 -0.0000 0.9944
vn -0.1052 -0.0000 0.9944
vn -0.3098 -0.0000 0.9508
vn -0.4980 -0.0000 0.8672
vn -0.6613 -0.0000 0.7501
vn -0.7947 -0.0000 0.6071
vn -0.8953 -0.0000 0.4455
vn -0.9624 -0.0000 0.2717
vn -0.9958 -0.0000 0.0913
vn -0.9958 -0.0000 -0.0913
vn -0.9624 -0.0000 -0.2717
vn -0.8953 -0.0000 -0.4455
vn -0.7947 -0.0000 -0.6071
vn -0.6613 -0.0000 -0.7501
vn -0.4980 -0.0000 -0.8672
vn -0.3098 -0.0000 -0.9508
vn -0.1052 -0.0000 -0.9944
vn 0.0097 -0.9951 -0.0980
vn 0.0976 -0.0976 -0.9904
vn 0.0286 0.9566 -0.2902
vn 0.0938 -0.2890 -0.9527
vn 0.0464 0.8810 -0.4709
vn 0.0865 -0.4696 -0.8786
vn 0.0624 0.7715 -0.6332
vn 0.0759 -0.6326 -0.7708
vn 0.0759 0.6326 -0.7708
vn 0.0624 -0.7715 -0.6332
vn 0.0865 0.4696 -0.8786
vn 0.0464 -0.8810 -0.4709
vn 0.0938 0.2890 -0.9527
vn 0.0286 -0.9565 -0.2902
vn 0.0975 0.0976 -0.9904
vn 0.0096 0.9951 -0.0980
vn 0.0846 -0.9566 -0.2790
vn 0.2889 0.0975 -0.9524
vn 0.0286 0.9951 -0.0943
vn 0.0286 -0.9951 -0.0942
vn 0.2889 -0.0975 -0.9524
vn 0.0847 0.9565 -0.2790
vn 0.2779 -0.2890 -0.9161
vn 0.1374 0.8810 -0.4528
vn 0.2563 -0.4696 -0.8448
vn 0.1847 0.7715 -0.6088
vn 0.2248 -0.6326 -0.7412
vn 0.2248 0.6326 -0.7412
vn 0.1847 -0.7715 -0.6088
vn 0.2563 0.4696 -0.8448
vn 0.1373 -0.8810 -0.4528
vn 0.2779 0.2890 -0.9161
vn 0.2999 0.7715 -0.5611
vn 0.3651 -0.6326 -0.6831
vn 0.3651 0.6326 -0.6831
vn 0.2999 -0.7715 -0.5611
vn 0.4162 0.4696 -0.7786
vn 0.2230 -0.8810 -0.4173
vn 0.4513 0.2890 -0.8443
vn 0.1374 -0.9565 -0.2571
vn 0.4691 0.0975 -0.8777
vn 0.0464 0.9951 -0.0869
vn 0.0464 -0.9951 -0.0869
vn 0.4691 -0.0975 -0.8777
vn 0.1374 0.9566 -0.2571
vn 0.4513 -0.2890 -0.8443
vn 0.2231 0.8810 -0.4173
vn 0.4162 -0.4696 -0.7786
vn 0.6314 0.0975 -0.7693
vn 0.0625 0.9951 -0.0761
vn 0.0625 -0.9951 -0.0761
vn 0.6314 -0.0975 -0.7693
vn 0.1850 0.9565 -0.2254
vn 0.6073 -0.2890 -0.7400
vn 0.3002 0.8810 -0.3658
vn 0.5601 -0.4696 -0.6825
vn 0.4036 0.7715 -0.4918
vn 0.4913 -0.6326 -0.5987
vn 0.4913 0.6326 -0.5987
vn 0.4036 -0.7715 -0.4918
vn 0.5601 0.4696 -0.6825
vn 0.3002 -0.8810 -0.3658
vn 0.6073 0.2890 -0.7400
vn 0.1850 -0.9566 -0.2254
vn 0.5987 -0.6326 -0.4913
vn 0.5987 0.6326 -0.4913
vn 0.4918 -0.7715 -0.4036
vn 0.6825 0.4696 -0.5601
vn 0.3658 -0.8810 -0.3002
vn 0.7400 0.2890 -0.6073
vn 0.2254 -0.9565 -0.1850
vn 0.7693 0.0975 -0.6314
vn 0.0761 0.9951 -0.0625
vn 0.0761 -0.9951 -0.0625
vn 0.7693 -0.0975 -0.6314
vn 0.2254 0.9566 -0.1850
vn 0.7400 -0.2890 -0.6073
vn 0.3658 0.8810 -0.3002
vn 0.6825 -0.4696 -0.5601
vn 0.4918 0.7715 -0.4036
vn 0.0868 -0.9951 -0.0464
vn 0.8777 -0.0975 -0.4691
vn 0.2571 0.9566 -0.1374
vn 0.8443 -0.2890 -0.4513
vn 0.4173 0.8810 -0.2231
vn 0.7786 -0.4696 -0.4162
vn 0.5611 0.7715 -0.2999
vn 0.6831 -0.6326 -0.3651
vn 0.6831 0.6326 -0.3651
vn 0.5611 -0.7715 -0.2999
vn 0.7786 0.4696 -0.4162
vn 0.4173 -0.8810 -0.2231
vn 0.8443 0.2890 -0.4513
vn 0.2571 -0.9565 -0.1374
vn 0.8777 0.0975 -0.4691
vn 0.0869 0.9951 -0.0464
vn 0.6088 -0.7715 -0.1847
vn 0.8448 0.4696 -0.2563
vn 0.4528 -0.8810 -0.1374
vn 0.9161 0.2890 -0.2779
vn 0.2790 -0.9565 -0.0846
vn 0.9524 0.0975 -0.2889
vn 0.0943 0.9951 -0.0286
vn 0.0942 -0.9951 -0.0286
vn 0.9524 -0.0975 -0.2889
vn 0.2790 0.9566 -0.0846
vn 0.9161 -0.2890 -0.2779
vn 0.4528 0.8810 -0.1374
vn 0.8448 -0.4696 -0.2563
vn 0.6088 0.7715 -0.1847
vn 0.7412 -0.6326 -0.2248
vn 0.7412 0.6326 -0.2248
vn 0.2902 0.9566 -0.0286
vn 0.9527 -0.2890 -0.0938
vn 0.4709 0.8810 -0.0464
vn 0.8786 -0.4696 -0.0865
vn 0.6332 0.7715 -0.0624
vn 0.7708 -0.6326 -0.0759
vn 0.7708 0.6326 -0.0759
vn 0.6332 -0.7715 -0.0624
vn 0.8786 0.4696 -0.0865
vn 0.4709 -0.8810 -0.0464
vn 0.9527 0.2890 -0.0938
vn 0.2902 -0.9565 -0.0286
vn 0.9904 0.0975 -0.0975
vn 0.0980 0.9951 -0.0097
vn 0.0980 -0.9951 -0.0097
vn 0.9904 -0.0975 -0.0975
vn 0.8786 0.4696 0.0865
vn 0.4709 -0.8810 0.0464
vn 0.9527 0.2890 0.0938
vn 0.2902 -0.9566 0.0286
vn 0.9904 0.0975 0.0976
vn 0.0980 0.9951 0.0097
vn 0.0980 -0.9951 0.0097
vn 0.9904 -0.0975 0.0976
vn 0.2902 0.9566 0.0286
vn 0.9527 -0.2890 0.0938
vn 0.4709 0.8810 0.0464
vn 0.8786 -0.4696 0.0865
vn 0.6332 0.7715 0.0624
vn 0.7708 -0.6326 0.0759
vn 0.7708 0.6326 0.0759
vn 0.6332 -0.7715 0.0624
vn 0.9161 -0.2890 0.2779
vn 0.4528 0.8810 0.1374
vn 0.8448 -0.4696 0.2563
vn 0.6088 0.7715 0.1847
vn 0.7412 -0.6326 0.2248
vn 0.7412 0.6326 0.2248
vn 0.6088 -0.7715 0.1847
vn 0.8448 0.4696 0.2563
vn 0.4528 -0.8810 0.1374
vn 0.9161 0.2890 0.2779
vn 0.2790 -0.9565 0.0846
vn 0.9524 0.0975 0.2889
vn 0.0943 0.9951 0.0286
vn 0.0942 -0.9951 0.0286
vn 0.9524 -0.0975 0.2889
vn 0.2790 0.9566 0.0846
vn 0.4173 -0.8810 0.2230
vn 0.8443 0.2890 0.4513
vn 0.2571 -0.9565 0.1374
vn 0.8777 0.0975 0.4691
vn 0.0869 0.9951 0.0464
vn 0.0868 -0.9951 0.0464
vn 0.8777 -0.0975 0.4691
vn 0.2571 0.9565 0.1374
vn 0.8443 -0.2890 0.4513
vn 0.4173 0.8810 0.2231
vn 0.7786 -0.4696 0.4162
vn 0.5611 0.7715 0.2999
vn 0.6831 -0.6326 0.3651
vn 0.6831 0.6326 0.3651
vn 0.5611 -0.7715 0.2999
vn 0.7786 0.4696 0.4162
vn 0.3658 0.8810 0.3002
vn 0.6825 -0.4696 0.5601
vn 0.4918 0.7715 0.4036
vn 0.5987 -0.6326 0.4913
vn 0.5987 0.6326 0.4913
vn 0.4918 -0.7715 0.4036
vn 0.6825 0.4696 0.5601
vn 0.3658 -0.8810 0.3002
vn 0.7400 0.2890 0.6073
vn 0.2254 -0.9565 0.1850
vn 0.7693 0.0975 0.6314
vn 0.0761 0.9951 0.0625
vn 0.0761 -0.9951 0.0625
vn 0.7693 -0.0975 0.6314
vn 0.2254 0.9566 0.1850
vn 0.7400 -0.2890 0.6073
vn 0.6073 0.2890 0.7400
vn 0.1850 -0.9566 0.2254
vn 0.6314 0.0975 0.7693
vn 0.0625 0.9951 0.0761
vn 0.0625 -0.9951 0.0761
vn 0.6314 -0.0975 0.7693
vn 0.1850 0.9565 0.2254
vn 0.6073 -0.2890 0.7400
vn 0.3002 0.8810 0.3658
vn 0.5601 -0.4696 0.6825
vn 0.4036 0.7715 0.4918
vn 0.4913 -0.6326 0.5987
vn 0.4913 0.6326 0.5987
vn 0.4036 -0.7715 0.4918
vn 0.5601 0.4696 0.6825
vn 0.3002 -0.8810 0.3658
vn 0.4162 -0.4696 0.7786
vn 0.2999 0.7715 0.5611
vn 0.3651 -0.6326 0.6831
vn 0.3651 0.6326 0.6831
vn 0.2999 -0.7715 0.5611
vn 0.4162 0.4696 0.7786
vn 0.2231 -0.8810 0.4173
vn 0.4513 0.2890 0.8443
vn 0.1374 -0.9565 0.2571
vn 0.4691 0.0975 0.8777
vn 0.0464 0.9951 0.0869
vn 0.0464 -0.9951 0.0869
vn 0.4691 -0.0975 0.8777
vn 0.1374 0.9566 0.2571
vn 0.4513 -0.2890 0.8443
vn 0.2230 0.8810 0.4173
vn 0.0846 -0.9566 0.2790
vn 0.2889 0.0975 0.9524
vn 0.0286 0.9951 0.0943
vn 0.0286 -0.9951 0.0942
vn 0.2889 -0.0975 0.9524
vn 0.0846 0.9566 0.2790
vn 0.2779 -0.2890 0.9161
vn 0.1374 0.8810 0.4528
vn 0.2563 -0.4696 0.8448
vn 0.1847 0.7715 0.6088
vn 0.2248 -0.6326 0.7412
vn 0.2248 0.6326 0.7412
vn 0.1847 -0.7715 0.6088
vn 0.2563 0.4696 0.8448
vn 0.1374 -0.8810 0.4528
vn 0.2779 0.2890 0.9161
vn 0.0759 -0.6326 0.7708
vn 0.0759 0.6326 0.7708
vn 0.0624 -0.7715 0.6332
vn 0.0865 0.4696 0.8786
vn 0.0464 -0.8810 0.4709
vn 0.0938 0.2890 0.9527
vn 0.0286 -0.9565 0.2902
vn 0.0975 0.0975 0.9904
vn 0.0097 0.9951 0.0980
vn 0.0097 -0.9951 0.0980
vn 0.0975 -0.0975 0.9904
vn 0.0285 0.9566 0.2902
vn 0.0938 -0.2890 0.9527
vn 0.0464 0.8810 0.4709
vn 0.0865 -0.4696 0.8786
vn 0.0624 0.7715 0.6332
vn -0.0097 0.9951 0.0980
vn -0.0097 -0.9951 0.0980
vn -0.0976 -0.0975 0.9904
vn -0.0285 0.9566 0.2902
vn -0.0938 -0.2890 0.9527
vn -0.0464 0.8810 0.4709
vn -0.0865 -0.4696 0.8786
vn -0.0624 0.7715 0.6332
vn -0.0759 -0.6326 0.7708
vn -0.0759 0.6326 0.7708
vn -0.0624 -0.7715 0.6332
vn -0.0865 0.4696 0.8786
vn -0.0464 -0.8810 0.4709
vn -0.0938 0.2890 0.9527
vn -0.0286 -0.9565 0.2902
vn -0.0975 0.0975 0.9904
vn -0.2248 0.6326 0.7412
vn -0.1847 -0.7715 0.6088
vn -0.2563 0.4696 0.8448
vn -0.1373 -0.8810 0.4528
vn -0.2779 0.2890 0.9161
vn -0.0846 -0.9565 0.2790
vn -0.2889 0.0975 0.9524
vn -0.0285 0.9951 0.0943
vn -0.0286 -0.9951 0.0942
vn -0.2889 -0.0975 0.9524
vn -0.0846 0.9566 0.2790
vn -0.2779 -0.2890 0.9161
vn -0.1373 0.8810 0.4528
vn -0.2563 -0.4696 0.8448
vn -0.1847 0.7715 0.6088
vn -0.2248 -0.6326 0.7412
vn -0.4691 -0.0975 0.8777
vn -0.1375 0.9565 0.2571
vn -0.4513 -0.2890 0.8443
vn -0.2231 0.8810 0.4173
vn -0.4162 -0.4696 0.7786
vn -0.2999 0.7715 0.5611
vn -0.3651 -0.6326 0.6831
vn -0.3651 0.6326 0.6831
vn -0.2999 -0.7715 0.5611
vn -0.4162 0.4696 0.7786
vn -0.2230 -0.8810 0.4173
vn -0.4513 0.2890 0.8443
vn -0.1374 -0.9565 0.2571
vn -0.4691 0.0975 0.8777
vn -0.0465 0.9951 0.0869
vn -0.0464 -0.9951 0.0869
vn -0.4036 -0.7715 0.4918
vn -0.5601 0.4696 0.6825
vn -0.3002 -0.8810 0.3658
vn -0.6073 0.2890 0.7400
vn -0.1850 -0.9566 0.2254
vn -0.6314 0.0975 0.7693
vn -0.0625 0.9951 0.0761
vn -0.0625 -0.9951 0.0761
vn -0.6314 -0.0975 0.7693
vn -0.1850 0.9566 0.2254
vn -0.6073 -0.2890 0.7400
vn -0.3002 0.8810 0.3658
vn -0.5601 -0.4696 0.6825
vn -0.4036 0.7715 0.4918
vn -0.4913 -0.6326 0.5987
vn -0.4913 0.6326 0.5987
vn -0.2254 0.9566 0.1850
vn -0.7400 -0.2890 0.6073
vn -0.3658 0.8810 0.3002
vn -0.6825 -0.4696 0.5601
vn -0.4918 0.7715 0.4036
vn -0.5987 -0.6326 0.4913
vn -0.5987 0.6326 0.4913
vn -0.4918 -0.7715 0.4036
vn -0.6825 0.4696 0.5601
vn -0.3658 -0.8810 0.3002
vn -0.7400 0.2890 0.6073
vn -0.2254 -0.9565 0.1850
vn -0.7693 0.0975 0.6314
vn -0.0761 0.9951 0.0625
vn -0.0761 -0.9951 0.0625
vn -0.7693 -0.0975 0.6314
vn -0.7786 0.4696 0.4162
vn -0.4173 -0.8810 0.2230
vn -0.8443 0.2890 0.4513
vn -0.2571 -0.9565 0.1374
vn -0.8777 0.0975 0.4691
vn -0.0869 0.9951 0.0464
vn -0.0869 -0.9951 0.0464
vn -0.8777 -0.0975 0.4691
vn -0.2571 0.9566 0.1374
vn -0.8443 -0.2890 0.4513
vn -0.4173 0.8810 0.2231
vn -0.7786 -0.4696 0.4162
vn -0.5611 0.7715 0.2999
vn -0.6831 -0.6326 0.3651
vn -0.6831 0.6326 0.3651
vn -0.5611 -0.7715 0.2999
vn -0.9161 -0.2890 0.2779
vn -0.4528 0.8810 0.1374
vn -0.8448 -0.4696 0.2563
vn -0.6088 0.7715 0.1847
vn -0.7412 -0.6326 0.2248
vn -0.7412 0.6326 0.2248
vn -0.6088 -0.7715 0.1847
vn -0.8448 0.4696 0.2563
vn -0.4528 -0.8810 0.1374
vn -0.9161 0.2890 0.2779
vn -0.2790 -0.9565 0.0846
vn -0.9524 0.0975 0.2889
vn -0.0943 0.9951 0.0286
vn -0.0942 -0.9951 0.0286
vn -0.9524 -0.0975 0.2889
vn -0.2790 0.9566 0.0846
vn -0.4709 -0.8810 0.0464
vn -0.9527 0.2890 0.0938
vn -0.2902 -0.9565 0.0286
vn -0.9904 0.0975 0.0975
vn -0.0980 0.9951 0.0097
vn -0.0980 -0.9951 0.0097
vn -0.9904 -0.0975 0.0975
vn -0.2902 0.9566 0.0286
vn -0.9527 -0.2890 0.0938
vn -0.4709 0.8810 0.0464
vn -0.8786 -0.4696 0.0865
vn -0.6332 0.7715 0.0624
vn -0.7708 -0.6326 0.0759
vn -0.7708 0.6326 0.0759
vn -0.6332 -0.7715 0.0624
vn -0.8786 0.4696 0.0865
vn -0.8786 -0.4696 -0.0865
vn -0.6332 0.7715 -0.0624
vn -0.7708 -0.6326 -0.0759
vn -0.7708 0.6326 -0.0759
vn -0.6332 -0.7715 -0.0624
vn -0.8786 0.4696 -0.0865
vn -0.4709 -0.8810 -0.0464
vn -0.9527 0.2890 -0.0938
vn -0.2902 -0.9565 -0.0286
vn -0.9904 0.0975 -0.0976
vn -0.0980 0.9951 -0.0097
vn -0.0980 -0.9951 -0.0097
vn -0.9904 -0.0975 -0.0976
vn -0.2902 0.9566 -0.0286
vn -0.9527 -0.2890 -0.0938
vn -0.4709 0.8810 -0.0464
vn -0.2790 -0.9565 -0.0846
vn -0.9524 0.0975 -0.2889
vn -0.0943 0.9951 -0.0286
vn -0.0942 -0.9951 -0.0286
vn -0.9524 -0.0975 -0.2889
vn -0.2790 0.9566 -0.0846
vn -0.9161 -0.2890 -0.2779
vn -0.4528 0.8810 -0.1374
vn -0.8448 -0.4696 -0.2563
vn -0.6088 0.7715 -0.1847
vn -0.7412 -0.6326 -0.2248
vn -0.7412 0.6326 -0.2248
vn -0.6088 -0.7715 -0.1847
vn -0.8448 0.4696 -0.2563
vn -0.4528 -0.8810 -0.1374
vn -0.9161 0.2890 -0.2779
vn -0.5611 0.7715 -0.2999
vn -0.6831 -0.6326 -0.3651
vn -0.6831 0.6326 -0.3651
vn -0.5611 -0.7715 -0.2999
vn -0.7786 0.4696 -0.4162
vn -0.4173 -0.8810 -0.2231
vn -0.8443 0.2890 -0.4513
vn -0.2571 -0.9565 -0.1374
vn -0.8777 0.0975 -0.4691
vn -0.0869 0.9951 -0.0464
vn -0.0868 -0.9951 -0.0464
vn -0.8777 -0.0975 -0.4691
vn -0.2571 0.9566 -0.1374
vn -0.8443 -0.2890 -0.4513
vn -0.4173 0.8810 -0.2231
vn -0.7786 -0.4696 -0.4162
vn -0.7693 0.0975 -0.6314
vn -0.0761 0.9951 -0.0625
vn -0.0761 -0.9951 -0.0625
vn -0.7693 -0.0975 -0.6314
vn -0.2254 0.9566 -0.1850
vn -0.7400 -0.2890 -0.6073
vn -0.3658 0.8810 -0.3002
vn -0.6825 -0.4696 -0.5601
vn -0.4918 0.7715 -0.4036
vn -0.5987 -0.6326 -0.4913
vn -0.5987 0.6326 -0.4913
vn -0.4918 -0.7715 -0.4036
vn -0.6825 0.4696 -0.5601
vn -0.3658 -0.8810 -0.3002
vn -0.7400 0.2890 -0.6073
vn -0.2254 -0.9565 -0.1850
vn -0.4913 -0.6326 -0.5987
vn -0.4913 0.6326 -0.5987
vn -0.4036 -0.7715 -0.4918
vn -0.5601 0.4696 -0.6825
vn -0.3002 -0.8810 -0.3658
vn -0.6073 0.2890 -0.7400
vn -0.1850 -0.9566 -0.2254
vn -0.6314 0.0975 -0.7693
vn -0.0625 0.9951 -0.0761
vn -0.0625 -0.9951 -0.0761
vn -0.6314 -0.0975 -0.7693
vn -0.1850 0.9565 -0.2254
vn -0.6073 -0.2890 -0.7400
vn -0.3002 0.8810 -0.3658
vn -0.5601 -0.4696 -0.6825
vn -0.4036 0.7715 -0.4918
vn -0.0464 0.9951 -0.0869
vn -0.0464 -0.9951 -0.0869
vn -0.4691 -0.0975 -0.8777
vn -0.1374 0.9566 -0.2571
vn -0.4513 -0.2890 -0.8443
vn -0.2231 0.8810 -0.4173
vn -0.4162 -0.4696 -0.7786
vn -0.2999 0.7715 -0.5611
vn -0.3651 -0.6326 -0.6831
vn -0.3651 0.6326 -0.6831
vn -0.2999 -0.7715 -0.5611
vn -0.4162 0.4696 -0.7786
vn -0.2231 -0.8810 -0.4173
vn -0.4513 0.2890 -0.8443
vn -0.1374 -0.9565 -0.2571
vn -0.4691 0.0975 -0.8777
vn -0.2248 0.6326 -0.7412
vn -0.1847 -0.7715 -0.6088
vn -0.2563 0.4696 -0.8448
vn -0.1374 -0.8810 -0.4528
vn -0.2779 0.2890 -0.9161
vn -0.0846 -0.9566 -0.2790
vn -0.2889 0.0975 -0.9524
vn -0.0286 0.9951 -0.0943
vn -0.0286 -0.9951 -0.0942
vn -0.2889 -0.0975 -0.9524
vn -0.0846 0.9566 -0.2790
vn -0.2779 -0.2890 -0.9161
vn -0.1373 0.8810 -0.4528
vn -0.2563 -0.4696 -0.8448
vn -0.1847 0.7715 -0.6088
vn -0.2248 -0.6326 -0.7412
vn -0.0976 -0.0975 -0.9904
vn -0.0285 0.9566 -0.2902
vn -0.0938 -0.2890 -0.9527
vn -0.0464 0.8810 -0.4709
vn -0.0865 -0.4696 -0.8786
vn -0.0624 0.7715 -0.6332
vn -0.0759 -0.6326 -0.7708
vn -0.0759 0.6326 -0.7708
vn -0.0624 -0.7715 -0.6332
vn -0.0865 0.4696 -0.8786
vn -0.0464 -0.8810 -0.4709
vn -0.0938 0.2890 -0.9527
vn -0.0286 -0.9565 -0.2902
vn -0.0976 0.0975 -0.9904
vn -0.0096 0.9951 -0.0980
vn -0.0097 -0.9951 -0.0980
vn -1.0000 -0.0000 -0.0000
vn -0.0000 -0.0000 -1.0000
vn 1.0000 -0.0000 -0.0000
vn -0.0000 -0.0000 1.0000
vn 0.4416 -0.8972 -0.0000
vn 0.3429 0.9394 -0.0000
vt 0.750000 0.937500
vt 0.734375 1.000000
vt 0.718750 0.937500
vt 0.750000 0.875000
vt 0.718750 0.875000
vt 0.750000 0.812500
vt 0.718750 0.812500
vt 0.750000 0.750000
vt 0.718750 0.750000
vt 0.750000 0.687500
vt 0.718750 0.687500
vt 0.750000 0.625000
vt 0.718750 0.625000
vt 0.750000 0.562500
vt 0.718750 0.562500
vt 0.687500 0.687500
vt 0.687500 0.625000
vt 0.687500 0.562500
vt 0.703125 1.000000
vt 0.687500 0.937500
vt 0.687500 0.875000
vt 0.687500 0.812500
vt 0.687500 0.750000
vt 0.656250 0.875000
vt 0.656250 0.812500
vt 0.656250 0.750000
vt 0.656250 0.687500
vt 0.656250 0.625000
vt 0.656250 0.562500
vt 0.671875 1.000000
vt 0.656250 0.937500
vt 0.625000 0.625000
vt 0.625000 0.562500
vt 0.640625 1.000000
vt 0.625000 0.937500
vt 0.625000 0.875000
vt 0.625000 0.812500
vt 0.625000 0.750000
vt 0.625000 0.687500
vt 0.593750 0.812500
vt 0.593750 0.750000
vt 0.593750 0.687500
vt 0.593750 0.625000
vt 0.593750 0.562500
vt 0.609375 1.000000
vt 0.593750 0.937500
vt 0.593750 0.875000
vt 0.578125 1.000000
vt 0.562500 0.937500
vt 0.562500 0.875000
vt 0.562500 0.812500
vt 0.562500 0.750000
vt 0.562500 0.687500
vt 0.562500 0.625000
vt 0.562500 0.562500
vt 0.531250 0.812500
vt 0.531250 0.750000
vt 0.531250 0.687500
vt 0.531250 0.625000
vt 0.531250 0.562500
vt 0.546875 1.000000
vt 0.531250 0.937500
vt 0.531250 0.875000
vt 0.515625 1.000000
vt 0.500000 0.937500
vt 0.500000 0.875000
vt 0.500000 0.812500
vt 0.500000 0.750000
vt 0.500000 0.687500
vt 0.500000 0.625000
vt 0.500000 0.562500
vt 0.468750 0.750000
vt 0.468750 0.687500
vt 0.468750 0.625000
vt 0.468750 0.562500
vt 0.484375 1.000000
vt 0.468750 0.937500
vt 0.468750 0.875000
vt 0.468750 0.812500
vt 0.453125 1.000000
vt 0.437500 0.937500
vt 0.437500 0.875000
vt 0.437500 0.812500
vt 0.437500 0.750000
vt 0.437500 0.687500
vt 0.437500 0.625000
vt 0.437500 0.562500
vt 0.406250 0.750000
vt 0.406250 0.687500
vt 0.406250 0.625000
vt 0.406250 0.562500
vt 0.421875 1.000000
vt 0.406250 0.937500
vt 0.406250 0.875000
vt 0.406250 0.812500
vt 0.375000 0.937500
vt 0.375000 0.875000
vt 0.375000 0.812500
vt 0.375000 0.750000
vt 0.375000 0.687500
vt 0.375000 0.625000
vt 0.375000 0.562500
vt 0.390625 1.000000
vt 0.343750 0.687500
vt 0.343750 0.625000
vt 0.343750 0.562500
vt 0.359375 1.000000
vt 0.343750 0.937500
vt 0.343750 0.875000
vt 0.343750 0.812500
vt 0.343750 0.750000
vt 0.312500 0.875000
vt 0.312500 0.812500
vt 0.312500 0.750000
vt 0.312500 0.687500
vt 0.312500 0.625000
vt 0.312500 0.562500
vt 0.328125 1.000000
vt 0.312500 0.937500
vt 0.281250 0.625000
vt 0.281250 0.562500
vt 0.296875 1.000000
vt 0.281250 0.937500
vt 0.281250 0.875000
vt 0.281250 0.812500
vt 0.281250 0.750000
vt 0.281250 0.687500
vt 0.250000 0.875000
vt 0.250000 0.812500
vt 0.250000 0.750000
vt 0.250000 0.687500
vt 0.250000 0.625000
vt 0.250000 0.562500
vt 0.265625 1.000000
vt 0.250000 0.937500
vt 0.218750 0.625000
vt 0.218750 0.562500
vt 0.234375 1.000000
vt 0.218750 0.937500
vt 0.218750 0.875000
vt 0.218750 0.812500
vt 0.218750 0.750000
vt 0.218750 0.687500
vt 0.187500 0.812500
vt 0.187500 0.750000
vt 0.187500 0.687500
vt 0.187500 0.625000
vt 0.187500 0.562500
vt 0.203125 1.000000
vt 0.187500 0.937500
vt 0.187500 0.875000
vt 0.171875 1.000000
vt 0.156250 0.937500
vt 0.156250 0.875000
vt 0.156250 0.812500
vt 0.156250 0.750000
vt 0.156250 0.687500
vt 0.156250 0.625000
vt 0.156250 0.562500
vt 0.125000 0.812500
vt 0.125000 0.750000
vt 0.125000 0.687500
vt 0.125000 0.625000
vt 0.125000 0.562500
vt 0.140625 1.000000
vt 0.125000 0.937500
vt 0.125000 0.875000
vt 0.109375 1.000000
vt 0.093750 0.937500
vt 0.093750 0.875000
vt 0.093750 0.812500
vt 0.093750 0.750000
vt 0.093750 0.687500
vt 0.093750 0.625000
vt 0.093750 0.562500
vt 0.062500 0.750000
vt 0.062500 0.687500
vt 0.062500 0.625000
vt 0.062500 0.562500
vt 0.078125 1.000000
vt 0.062500 0.937500
vt 0.062500 0.875000
vt 0.062500 0.812500
vt 0.031250 0.937500
vt 0.031250 0.875000
vt 0.031250 0.812500
vt 0.031250 0.750000
vt 0.031250 0.687500
vt 0.031250 0.625000
vt 0.031250 0.562500
vt 0.046875 1.000000
vt 0.000000 0.687500
vt 0.000000 0.625000
vt 0.000000 0.562500
vt 0.015625 1.000000
vt 0.000000 0.937500
vt 0.000000 0.875000
vt 0.000000 0.812500
vt 0.000000 0.750000
vt 1.000000 0.875000
vt 1.000000 0.937500
vt 0.968750 0.937500
vt 0.968750 0.875000
vt 1.000000 0.812500
vt 0.968750 0.812500
vt 1.000000 0.750000
vt 0.968750 0.750000
vt 1.000000 0.687500
vt 0.968750 0.687500
vt 1.000000 0.625000
vt 0.968750 0.625000
vt 1.000000 0.562500
vt 0.968750 0.562500
vt 0.984375 1.000000
vt 0.937500 0.687500
vt 0.937500 0.625000
vt 0.937500 0.562500
vt 0.953125 1.000000
vt 0.937500 0.937500
vt 0.937500 0.875000
vt 0.937500 0.812500
vt 0.937500 0.750000
vt 0.906250 0.875000
vt 0.906250 0.812500
vt 0.906250 0.750000
vt 0.906250 0.687500
vt 0.906250 0.625000
vt 0.906250 0.562500
vt 0.921875 1.000000
vt 0.906250 0.937500
vt 0.875000 0.625000
vt 0.875000 0.562500
vt 0.890625 1.000000
vt 0.875000 0.937500
vt 0.875000 0.875000
vt 0.875000 0.812500
vt 0.875000 0.750000
vt 0.875000 0.687500
vt 0.843750 0.875000
vt 0.843750 0.812500
vt 0.843750 0.750000
vt 0.843750 0.687500
vt 0.843750 0.625000
vt 0.843750 0.562500
vt 0.859375 1.000000
vt 0.843750 0.937500
vt 0.812500 0.625000
vt 0.812500 0.562500
vt 0.828125 1.000000
vt 0.812500 0.937500
vt 0.812500 0.875000
vt 0.812500 0.812500
vt 0.812500 0.750000
vt 0.812500 0.687500
vt 0.781250 0.812500
vt 0.781250 0.750000
vt 0.781250 0.687500
vt 0.781250 0.625000
vt 0.781250 0.562500
vt 0.796875 1.000000
vt 0.781250 0.937500
vt 0.781250 0.875000
vt 0.765625 1.000000
vt 1.000000 0.500000
vt 1.000000 1.000000
vt 0.968750 1.000000
vt 0.968750 0.500000
vt 0.937500 1.000000
vt 0.937500 0.500000
vt 0.906250 1.000000
vt 0.906250 0.500000
vt 0.875000 1.000000
vt 0.875000 0.500000
vt 0.843750 1.000000
vt 0.843750 0.500000
vt 0.812500 1.000000
vt 0.812500 0.500000
vt 0.781250 1.000000
vt 0.781250 0.500000
vt 0.750000 1.000000
vt 0.750000 0.500000
vt 0.718750 1.000000
vt 0.718750 0.500000
vt 0.687500 1.000000
vt 0.687500 0.500000
vt 0.656250 1.000000
vt 0.656250 0.500000
vt 0.625000 1.000000
vt 0.625000 0.500000
vt 0.593750 1.000000
vt 0.593750 0.500000
vt 0.562500 1.000000
vt 0.562500 0.500000
vt 0.531250 1.000000
vt 0.531250 0.500000
vt 0.500000 1.000000
vt 0.500000 0.500000
vt 0.468750 1.000000
vt 0.468750 0.500000
vt 0.437500 1.000000
vt 0.437500 0.500000
vt 0.406250 1.000000
vt 0.406250 0.500000
vt 0.375000 1.000000
vt 0.375000 0.500000
vt 0.343750 1.000000
vt 0.343750 0.500000
vt 0.312500 1.000000
vt 0.312500 0.500000
vt 0.281250 1.000000
vt 0.281250 0.500000
vt 0.250000 1.000000
vt 0.250000 0.500000
vt 0.218750 1.000000
vt 0.218750 0.500000
vt 0.187500 1.000000
vt 0.187500 0.500000
vt 0.156250 1.000000
vt 0.156250 0.500000
vt 0.125000 1.000000
vt 0.125000 0.500000
vt 0.093750 1.000000
vt 0.093750 0.500000
vt 0.062500 1.000000
vt 0.062500 0.500000
vt 0.031250 1.000000
vt 0.031250 0.500000
vt 0.000000 1.000000
vt 0.000000 0.500000
vt 0.734375 0.000000
vt 0.750000 0.062500
vt 0.718750 0.062500
vt 0.750000 0.437500
vt 0.718750 0.437500
vt 0.750000 0.375000
vt 0.718750 0.375000
vt 0.750000 0.312500
vt 0.718750 0.312500
vt 0.750000 0.250000
vt 0.718750 0.250000
vt 0.750000 0.187500
vt 0.718750 0.187500
vt 0.750000 0.125000
vt 0.718750 0.125000
vt 0.687500 0.125000
vt 0.687500 0.062500
vt 0.703125 0.000000
vt 0.687500 0.437500
vt 0.687500 0.375000
vt 0.687500 0.312500
vt 0.687500 0.250000
vt 0.687500 0.187500
vt 0.656250 0.312500
vt 0.656250 0.250000
vt 0.656250 0.187500
vt 0.656250 0.125000
vt 0.656250 0.062500
vt 0.671875 0.000000
vt 0.656250 0.437500
vt 0.656250 0.375000
vt 0.640625 0.000000
vt 0.625000 0.062500
vt 0.625000 0.437500
vt 0.625000 0.375000
vt 0.625000 0.312500
vt 0.625000 0.250000
vt 0.625000 0.187500
vt 0.625000 0.125000
vt 0.593750 0.312500
vt 0.593750 0.250000
vt 0.593750 0.187500
vt 0.593750 0.125000
vt 0.593750 0.062500
vt 0.609375 0.000000
vt 0.593750 0.437500
vt 0.593750 0.375000
vt 0.578125 0.000000
vt 0.562500 0.062500
vt 0.562500 0.437500
vt 0.562500 0.375000
vt 0.562500 0.312500
vt 0.562500 0.250000
vt 0.562500 0.187500
vt 0.562500 0.125000
vt 0.531250 0.250000
vt 0.531250 0.187500
vt 0.531250 0.125000
vt 0.531250 0.062500
vt 0.546875 0.000000
vt 0.531250 0.437500
vt 0.531250 0.375000
vt 0.531250 0.312500
vt 0.500000 0.437500
vt 0.500000 0.375000
vt 0.500000 0.312500
vt 0.500000 0.250000
vt 0.500000 0.187500
vt 0.500000 0.125000
vt 0.500000 0.062500
vt 0.500000 0.500000
vt 0.515625 0.000000
vt 0.468750 0.187500
vt 0.468750 0.125000
vt 0.468750 0.062500
vt 0.468750 0.500000
vt 0.484375 0.000000
vt 0.468750 0.437500
vt 0.468750 0.375000
vt 0.468750 0.312500
vt 0.468750 0.250000
vt 0.437500 0.437500
vt 0.437500 0.375000
vt 0.437500 0.312500
vt 0.437500 0.250000
vt 0.437500 0.187500
vt 0.437500 0.125000
vt 0.437500 0.062500
vt 0.437500 0.500000
vt 0.453125 0.000000
vt 0.406250 0.187500
vt 0.406250 0.125000
vt 0.406250 0.062500
vt 0.406250 0.500000
vt 0.421875 0.000000
vt 0.406250 0.437500
vt 0.406250 0.375000
vt 0.406250 0.312500
vt 0.406250 0.250000
vt 0.375000 0.375000
vt 0.375000 0.312500
vt 0.375000 0.250000
vt 0.375000 0.187500
vt 0.375000 0.125000
vt 0.375000 0.062500
vt 0.375000 0.500000
vt 0.390625 0.000000
vt 0.375000 0.437500
vt 0.343750 0.125000
vt 0.343750 0.062500
vt 0.343750 0.500000
vt 0.359375 0.000000
vt 0.343750 0.437500
vt 0.343750 0.375000
vt 0.343750 0.312500
vt 0.343750 0.250000
vt 0.343750 0.187500
vt 0.312500 0.375000
vt 0.312500 0.312500
vt 0.312500 0.250000
vt 0.312500 0.187500
vt 0.312500 0.125000
vt 0.312500 0.062500
vt 0.312500 0.500000
vt 0.328125 0.000000
vt 0.312500 0.437500
vt 0.281250 0.125000
vt 0.281250 0.062500
vt 0.281250 0.500000
vt 0.296875 0.000000
vt 0.281250 0.437500
vt 0.281250 0.375000
vt 0.281250 0.312500
vt 0.281250 0.250000
vt 0.281250 0.187500
vt 0.250000 0.312500
vt 0.250000 0.250000
vt 0.250000 0.187500
vt 0.250000 0.125000
vt 0.250000 0.062500
vt 0.250000 0.500000
vt 0.265625 0.000000
vt 0.250000 0.437500
vt 0.250000 0.375000
vt 0.234375 0.000000
vt 0.218750 0.062500
vt 0.218750 0.500000
vt 0.218750 0.437500
vt 0.218750 0.375000
vt 0.218750 0.312500
vt 0.218750 0.250000
vt 0.218750 0.187500
vt 0.218750 0.125000
vt 0.187500 0.250000
vt 0.187500 0.187500
vt 0.187500 0.125000
vt 0.187500 0.062500
vt 0.187500 0.500000
vt 0.203125 0.000000
vt 0.187500 0.437500
vt 0.187500 0.375000
vt 0.187500 0.312500
vt 0.156250 0.500000
vt 0.156250 0.437500
vt 0.156250 0.375000
vt 0.156250 0.312500
vt 0.156250 0.250000
vt 0.156250 0.187500
vt 0.156250 0.125000
vt 0.156250 0.062500
vt 0.171875 0.000000
vt 0.125000 0.250000
vt 0.125000 0.187500
vt 0.125000 0.125000
vt 0.125000 0.062500
vt 0.125000 0.500000
vt 0.140625 0.000000
vt 0.125000 0.437500
vt 0.125000 0.375000
vt 0.125000 0.312500
vt 0.093750 0.437500
vt 0.093750 0.375000
vt 0.093750 0.312500
vt 0.093750 0.250000
vt 0.093750 0.187500
vt 0.093750 0.125000
vt 0.093750 0.062500
vt 0.093750 0.500000
vt 0.109375 0.000000
vt 0.062500 0.187500
vt 0.062500 0.125000
vt 0.062500 0.062500
vt 0.062500 0.500000
vt 0.078125 0.000000
vt 0.062500 0.437500
vt 0.062500 0.375000
vt 0.062500 0.312500
vt 0.062500 0.250000
vt 0.031250 0.437500
vt 0.031250 0.375000
vt 0.031250 0.312500
vt 0.031250 0.250000
vt 0.031250 0.187500
vt 0.031250 0.125000
vt 0.031250 0.062500
vt 0.031250 0.500000
vt 0.046875 0.000000
vt 0.000000 0.187500
vt 0.000000 0.125000
vt 0.000000 0.062500
vt 0.015625 0.000000
vt 0.000000 0.437500
vt 0.000000 0.375000
vt 0.000000 0.312500
vt 0.000000 0.250000
vt 1.000000 0.312500
vt 1.000000 0.375000
vt 0.968750 0.375000
vt 0.968750 0.312500
vt 1.000000 0.250000
vt 0.968750 0.250000
vt 1.000000 0.187500
vt 0.968750 0.187500
vt 1.000000 0.125000
vt 0.968750 0.125000
vt 1.000000 0.062500
vt 0.968750 0.062500
vt 0.968750 0.500000
vt 0.984375 0.000000
vt 1.000000 0.437500
vt 0.968750 0.437500
vt 0.937500 0.125000
vt 0.937500 0.062500
vt 0.937500 0.500000
vt 0.953125 0.000000
vt 0.937500 0.437500
vt 0.937500 0.375000
vt 0.937500 0.312500
vt 0.937500 0.250000
vt 0.937500 0.187500
vt 0.906250 0.312500
vt 0.906250 0.250000
vt 0.906250 0.187500
vt 0.906250 0.125000
vt 0.906250 0.062500
vt 0.906250 0.500000
vt 0.921875 0.000000
vt 0.906250 0.437500
vt 0.906250 0.375000
vt 0.875000 0.500000
vt 0.890625 0.000000
vt 0.875000 0.062500
vt 0.875000 0.437500
vt 0.875000 0.375000
vt 0.875000 0.312500
vt 0.875000 0.250000
vt 0.875000 0.187500
vt 0.875000 0.125000
vt 0.843750 0.312500
vt 0.843750 0.250000
vt 0.843750 0.187500
vt 0.843750 0.125000
vt 0.843750 0.062500
vt 0.843750 0.500000
vt 0.859375 0.000000
vt 0.843750 0.437500
vt 0.843750 0.375000
vt 0.828125 0.000000
vt 0.812500 0.062500
vt 0.812500 0.500000
vt 0.812500 0.437500
vt 0.812500 0.375000
vt 0.812500 0.312500
vt 0.812500 0.250000
vt 0.812500 0.187500
vt 0.812500 0.125000
vt 0.781250 0.250000
vt 0.781250 0.187500
vt 0.781250 0.125000
vt 0.781250 0.062500
vt 0.781250 0.500000
vt 0.796875 0.000000
vt 0.781250 0.437500
vt 0.781250 0.375000
vt 0.781250 0.312500
vt 0.765625 0.000000
vt 0.375000 0.000000
vt 0.625000 0.000000
vt 0.375000 0.750000
vt 0.125000 0.750000
vt 0.875000 0.750000
s 0
usemtl マテリアル
f 222/1/1 1/2/1 5/3/1
f 223/4/2 222/1/2 5/3/2 6/5/2
f 2/6/3 223/4/3 6/5/3 7/7/3
f 224/8/4 2/6/4 7/7/4 8/9/4
f 3/10/5 224/8/5 8/9/5 9/11/5
f 225/12/6 3/10/6 9/11/6 10/13/6
f 4/14/7 225/12/7 10/13/7 11/15/7
f 10/13/8 9/11/8 16/16/8 17/17/8
f 11/15/9 10/13/9 17/17/9 18/18/9
f 5/3/10 1/19/10 12/20/10
f 6/5/11 5/3/11 12/20/11 13/21/11
f 7/7/12 6/5/12 13/21/12 14/22/12
f 8/9/13 7/7/13 14/22/13 15/23/13
f 9/11/14 8/9/14 15/23/14 16/16/14
f 14/22/15 13/21/15 20/24/15 21/25/15
f 15/23/16 14/22/16 21/25/16 22/26/16
f 16/16/17 15/23/17 22/26/17 23/27/17
f 17/17/18 16/16/18 23/27/18 24/28/18
f 18/18/19 17/17/19 24/28/19 25/29/19
f 12/20/20 1/30/20 19/31/20
f 13/21/21 12/20/21 19/31/21 20/24/21
f 25/29/22 24/28/22 31/32/22 32/33/22
f 19/31/23 1/34/23 26/35/23
f 20/24/24 19/31/24 26/35/24 27/36/24
f 21/25/25 20/24/25 27/36/25 28/37/25
f 22/26/26 21/25/26 28/37/26 29/38/26
f 23/27/27 22/26/27 29/38/27 30/39/27
f 24/28/28 23/27/28 30/39/28 31/32/28
f 29/38/29 28/37/29 35/40/29 36/41/29
f 30/39/30 29/38/30 36/41/30 37/42/30
f 31/32/31 30/39/31 37/42/31 38/43/31
f 32/33/32 31/32/32 38/43/32 39/44/32
f 26/35/33 1/45/33 33/46/33
f 27/36/34 26/35/34 33/46/34 34/47/34
f 28/37/35 27/36/35 34/47/35 35/40/35
f 33/46/36 1/48/36 40/49/36
f 34/47/37 33/46/37 40/49/37 41/50/37
f 35/40/38 34/47/38 41/50/38 42/51/38
f 36/41/39 35/40/39 42/51/39 43/52/39
f 37/42/40 36/41/40 43/52/40 44/53/40
f 38/43/41 37/42/41 44/53/41 45/54/41
f 39/44/42 38/43/42 45/54/42 46/55/42
f 43/52/43 42/51/43 49/56/43 50/57/43
f 44/53/44 43/52/44 50/57/44 51/58/44
f 45/54/45 44/53/45 51/58/45 52/59/45
f 46/55/46 45/54/46 52/59/46 53/60/46
f 40/49/47 1/61/47 47/62/47
f 41/50/48 40/49/48 47/62/48 48/63/48
f 42/51/49 41/50/49 48/63/49 49/56/49
f 47/62/50 1/64/50 54/65/50
f 48/63/51 47/62/51 54/65/51 55/66/51
f 49/56/52 48/63/52 55/66/52 56/67/52
f 50/57/53 49/56/53 56/67/53 57/68/53
f 51/58/54 50/57/54 57/68/54 58/69/54
f 52/59/55 51/58/55 58/69/55 59/70/55
f 53/60/56 52/59/56 59/70/56 60/71/56
f 58/69/57 57/68/57 64/72/57 65/73/57
f 59/70/58 58/69/58 65/73/58 66/74/58
f 60/71/59 59/70/59 66/74/59 67/75/59
f 54/65/60 1/76/60 61/77/60
f 55/66/61 54/65/61 61/77/61 62/78/61
f 56/67/62 55/66/62 62/78/62 63/79/62
f 57/68/63 56/67/63 63/79/63 64/72/63
f 61/77/64 1/80/64 68/81/64
f 62/78/65 61/77/65 68/81/65 69/82/65
f 63/79/66 62/78/66 69/82/66 70/83/66
f 64/72/67 63/79/67 70/83/67 71/84/67
f 65/73/68 64/72/68 71/84/68 72/85/68
f 66/74/69 65/73/69 72/85/69 73/86/69
f 67/75/70 66/74/70 73/86/70 74/87/70
f 72/85/71 71/84/71 78/88/71 79/89/71
f 73/86/72 72/85/72 79/89/72 80/90/72
f 74/87/73 73/86/73 80/90/73 81/91/73
f 68/81/74 1/92/74 75/93/74
f 69/82/75 68/81/75 75/93/75 76/94/75
f 70/83/76 69/82/76 76/94/76 77/95/76
f 71/84/77 70/83/77 77/95/77 78/88/77
f 76/94/78 75/93/78 82/96/78 83/97/78
f 77/95/79 76/94/79 83/97/79 84/98/79
f 78/88/80 77/95/80 84/98/80 85/99/80
f 79/89/81 78/88/81 85/99/81 86/100/81
f 80/90/82 79/89/82 86/100/82 87/101/82
f 81/91/83 80/90/83 87/101/83 88/102/83
f 75/93/84 1/103/84 82/96/84
f 87/101/85 86/100/85 93/104/85 94/105/85
f 88/102/86 87/101/86 94/105/86 95/106/86
f 82/96/87 1/107/87 89/108/87
f 83/97/88 82/96/88 89/108/88 90/109/88
f 84/98/89 83/97/89 90/109/89 91/110/89
f 85/99/90 84/98/90 91/110/90 92/111/90
f 86/100/91 85/99/91 92/111/91 93/104/91
f 91/110/92 90/109/92 97/112/92 98/113/92
f 92/111/93 91/110/93 98/113/93 99/114/93
f 93/104/94 92/111/94 99/114/94 100/115/94
f 94/105/95 93/104/95 100/115/95 101/116/95
f 95/106/96 94/105/96 101/116/96 102/117/96
f 89/108/97 1/118/97 96/119/97
f 90/109/98 89/108/98 96/119/98 97/112/98
f 102/117/99 101/116/99 108/120/99 109/121/99
f 96/119/100 1/122/100 103/123/100
f 97/112/101 96/119/101 103/123/101 104/124/101
f 98/113/102 97/112/102 104/124/102 105/125/102
f 99/114/103 98/113/103 105/125/103 106/126/103
f 100/115/104 99/114/104 106/126/104 107/127/104
f 101/116/105 100/115/105 107/127/105 108/120/105
f 105/125/106 104/124/106 111/128/106 112/129/106
f 106/126/107 105/125/107 112/129/107 113/130/107
f 107/127/108 106/126/108 113/130/108 114/131/108
f 108/120/109 107/127/109 114/131/109 115/132/109
f 109/121/110 108/120/110 115/132/110 116/133/110
f 103/123/111 1/134/111 110/135/111
f 104/124/112 103/123/112 110/135/112 111/128/112
f 116/133/113 115/132/113 122/136/113 123/137/113
f 110/135/114 1/138/114 117/139/114
f 111/128/115 110/135/115 117/139/115 118/140/115
f 112/129/116 111/128/116 118/140/116 119/141/116
f 113/130/117 112/129/117 119/141/117 120/142/117
f 114/131/118 113/130/118 120/142/118 121/143/118
f 115/132/119 114/131/119 121/143/119 122/136/119
f 120/142/120 119/141/120 126/144/120 127/145/120
f 121/143/121 120/142/121 127/145/121 128/146/121
f 122/136/122 121/143/122 128/146/122 129/147/122
f 123/137/123 122/136/123 129/147/123 130/148/123
f 117/139/124 1/149/124 124/150/124
f 118/140/125 117/139/125 124/150/125 125/151/125
f 119/141/126 118/140/126 125/151/126 126/144/126
f 124/150/127 1/152/127 131/153/127
f 125/151/128 124/150/128 131/153/128 132/154/128
f 126/144/129 125/151/129 132/154/129 133/155/129
f 127/145/130 126/144/130 133/155/130 134/156/130
f 128/146/131 127/145/131 134/156/131 135/157/131
f 129/147/132 128/146/132 135/157/132 136/158/132
f 130/148/133 129/147/133 136/158/133 137/159/133
f 134/156/134 133/155/134 140/160/134 141/161/134
f 135/157/135 134/156/135 141/161/135 142/162/135
f 136/158/136 135/157/136 142/162/136 143/163/136
f 137/159/137 136/158/137 143/163/137 144/164/137
f 131/153/138 1/165/138 138/166/138
f 132/154/139 131/153/139 138/166/139 139/167/139
f 133/155/140 132/154/140 139/167/140 140/160/140
f 138/166/141 1/168/141 145/169/141
f 139/167/142 138/166/142 145/169/142 146/170/142
f 140/160/143 139/167/143 146/170/143 147/171/143
f 141/161/144 140/160/144 147/171/144 148/172/144
f 142/162/145 141/161/145 148/172/145 149/173/145
f 143/163/146 142/162/146 149/173/146 150/174/146
f 144/164/147 143/163/147 150/174/147 151/175/147
f 149/173/148 148/172/148 155/176/148 156/177/148
f 150/174/149 149/173/149 156/177/149 157/178/149
f 151/175/150 150/174/150 157/178/150 158/179/150
f 145/169/151 1/180/151 152/181/151
f 146/170/152 145/169/152 152/181/152 153/182/152
f 147/171/153 146/170/153 153/182/153 154/183/153
f 148/172/154 147/171/154 154/183/154 155/176/154
f 153/182/155 152/181/155 159/184/155 160/185/155
f 154/183/156 153/182/156 160/185/156 161/186/156
f 155/176/157 154/183/157 161/186/157 162/187/157
f 156/177/158 155/176/158 162/187/158 163/188/158
f 157/178/159 156/177/159 163/188/159 164/189/159
f 158/179/160 157/178/160 164/189/160 165/190/160
f 152/181/161 1/191/161 159/184/161
f 164/189/162 163/188/162 170/192/162 171/193/162
f 165/190/163 164/189/163 171/193/163 172/194/163
f 159/184/164 1/195/164 166/196/164
f 160/185/165 159/184/165 166/196/165 167/197/165
f 161/186/166 160/185/166 167/197/166 168/198/166
f 162/187/167 161/186/167 168/198/167 169/199/167
f 163/188/168 162/187/168 169/199/168 170/192/168
f 167/200/169 166/201/169 173/202/169 174/203/169
f 168/204/170 167/200/170 174/203/170 175/205/170
f 169/206/171 168/204/171 175/205/171 176/207/171
f 170/208/172 169/206/172 176/207/172 177/209/172
f 171/210/173 170/208/173 177/209/173 178/211/173
f 172/212/174 171/210/174 178/211/174 179/213/174
f 166/201/175 1/214/175 173/202/175
f 178/211/176 177/209/176 184/215/176 185/216/176
f 179/213/177 178/211/177 185/216/177 186/217/177
f 173/202/178 1/218/178 180/219/178
f 174/203/179 173/202/179 180/219/179 181/220/179
f 175/205/180 174/203/180 181/220/180 182/221/180
f 176/207/181 175/205/181 182/221/181 183/222/181
f 177/209/182 176/207/182 183/222/182 184/215/182
f 182/221/183 181/220/183 188/223/183 189/224/183
f 183/222/184 182/221/184 189/224/184 190/225/184
f 184/215/185 183/222/185 190/225/185 191/226/185
f 185/216/186 184/215/186 191/226/186 192/227/186
f 186/217/187 185/216/187 192/227/187 193/228/187
f 180/219/188 1/229/188 187/230/188
f 181/220/189 180/219/189 187/230/189 188/223/189
f 193/228/190 192/227/190 199/231/190 200/232/190
f 187/230/191 1/233/191 194/234/191
f 188/223/192 187/230/192 194/234/192 195/235/192
f 189/224/193 188/223/193 195/235/193 196/236/193
f 190/225/194 189/224/194 196/236/194 197/237/194
f 191/226/195 190/225/195 197/237/195 198/238/195
f 192/227/196 191/226/196 198/238/196 199/231/196
f 196/236/197 195/235/197 202/239/197 203/240/197
f 197/237/198 196/236/198 203/240/198 204/241/198
f 198/238/199 197/237/199 204/241/199 205/242/199
f 199/231/200 198/238/200 205/242/200 206/243/200
f 200/232/201 199/231/201 206/243/201 207/244/201
f 194/234/202 1/245/202 201/246/202
f 195/235/203 194/234/203 201/246/203 202/239/203
f 207/244/204 206/243/204 213/247/204 214/248/204
f 201/246/205 1/249/205 208/250/205
f 202/239/206 201/246/206 208/250/206 209/251/206
f 203/240/207 202/239/207 209/251/207 210/252/207
f 204/241/208 203/240/208 210/252/208 211/253/208
f 205/242/209 204/241/209 211/253/209 212/254/209
f 206/243/210 205/242/210 212/254/210 213/247/210
f 211/253/211 210/252/211 217/255/211 218/256/211
f 212/254/212 211/253/212 218/256/212 219/257/212
f 213/247/213 212/254/213 219/257/213 220/258/213
f 214/248/214 213/247/214 220/258/214 221/259/214
f 208/250/215 1/260/215 215/261/215
f 209/251/216 208/250/216 215/261/216 216/262/216
f 210/252/217 209/251/217 216/262/217 217/255/217
f 215/261/218 1/263/218 222/1/218
f 216/262/219 215/261/219 222/1/219 223/4/219
f 217/255/220 216/262/220 223/4/220 2/6/220
f 218/256/221 217/255/221 2/6/221 224/8/221
f 219/257/222 218/256/222 224/8/222 3/10/222
f 220/258/223 219/257/223 3/10/223 225/12/223
f 221/259/224 220/258/224 225/12/224 4/14/224
f 226/264/225 227/265/225 229/266/225 228/267/225
f 228/267/226 229/266/226 231/268/226 230/269/226
f 230/269/227 231/268/227 233/270/227 232/271/227
f 232/271/228 233/270/228 235/272/228 234/273/228
f 234/273/229 235/272/229 237/274/229 236/275/229
f 236/275/230 237/274/230 239/276/230 238/277/230
f 238/277/231 239/276/231 241/278/231 240/279/231
f 240/279/232 241/278/232 243/280/232 242/281/232
f 242/281/233 243/280/233 245/282/233 244/283/233
f 244/283/234 245/282/234 247/284/234 246/285/234
f 246/285/235 247/284/235 249/286/235 248/287/235
f 248/287/236 249/286/236 251/288/236 250/289/236
f 250/289/237 251/288/237 253/290/237 252/291/237
f 252/291/238 253/290/238 255/292/238 254/293/238
f 254/293/239 255/292/239 257/294/239 256/295/239
f 256/295/240 257/294/240 259/296/240 258/297/240
f 258/297/241 259/296/241 261/298/241 260/299/241
f 260/299/242 261/298/242 263/300/242 262/301/242
f 262/301/243 263/300/243 265/302/243 264/303/243
f 264/303/244 265/302/244 267/304/244 266/305/244
f 266/305/245 267/304/245 269/306/245 268/307/245
f 268/307/246 269/306/246 271/308/246 270/309/246
f 270/309/247 271/308/247 273/310/247 272/311/247
f 272/311/248 273/310/248 275/312/248 274/313/248
f 274/313/249 275/312/249 277/314/249 276/315/249
f 276/315/250 277/314/250 279/316/250 278/317/250
f 278/317/251 279/316/251 281/318/251 280/319/251
f 280/319/252 281/318/252 283/320/252 282/321/252
f 282/321/253 283/320/253 285/322/253 284/323/253
f 284/323/254 285/322/254 287/324/254 286/325/254
f 286/325/255 287/324/255 289/326/255 288/327/255
f 288/327/256 289/326/256 227/328/256 226/329/256
f 297/330/257 771/331/257 312/332/257
f 295/333/258 294/281/258 305/283/258 306/334/258
f 764/4/259 763/1/259 298/3/259 299/5/259
f 767/335/260 295/333/260 306/334/260 307/336/260
f 291/6/261 764/4/261 299/5/261 300/7/261
f 296/337/262 767/335/262 307/336/262 308/338/262
f 765/8/263 291/6/263 300/7/263 301/9/263
f 768/339/264 296/337/264 308/338/264 309/340/264
f 292/10/265 765/8/265 301/9/265 302/11/265
f 769/341/266 768/339/266 309/340/266 310/342/266
f 766/12/267 292/10/267 302/11/267 303/13/267
f 770/343/268 769/341/268 310/342/268 311/344/268
f 293/14/269 766/12/269 303/13/269 304/15/269
f 771/331/270 770/343/270 311/344/270 312/332/270
f 294/281/271 293/14/271 304/15/271 305/283/271
f 763/1/272 290/2/272 298/3/272
f 312/332/273 311/344/273 326/345/273 327/346/273
f 305/283/274 304/15/274 319/18/274 320/285/274
f 298/3/275 290/19/275 313/20/275
f 297/347/276 312/332/276 327/346/276
f 306/334/277 305/283/277 320/285/277 321/348/277
f 299/5/278 298/3/278 313/20/278 314/21/278
f 307/336/279 306/334/279 321/348/279 322/349/279
f 300/7/280 299/5/280 314/21/280 315/22/280
f 308/338/281 307/336/281 322/349/281 323/350/281
f 301/9/282 300/7/282 315/22/282 316/23/282
f 309/340/283 308/338/283 323/350/283 324/351/283
f 302/11/284 301/9/284 316/23/284 317/16/284
f 310/342/285 309/340/285 324/351/285 325/352/285
f 303/13/286 302/11/286 317/16/286 318/17/286
f 311/344/287 310/342/287 325/352/287 326/345/287
f 304/15/288 303/13/288 318/17/288 319/18/288
f 316/23/289 315/22/289 330/25/289 331/26/289
f 324/351/290 323/350/290 338/353/290 339/354/290
f 317/16/291 316/23/291 331/26/291 332/27/291
f 325/352/292 324/351/292 339/354/292 340/355/292
f 318/17/293 317/16/293 332/27/293 333/28/293
f 326/345/294 325/352/294 340/355/294 341/356/294
f 319/18/295 318/17/295 333/28/295 334/29/295
f 327/346/296 326/345/296 341/356/296 342/357/296
f 320/285/297 319/18/297 334/29/297 335/287/297
f 313/20/298 290/30/298 328/31/298
f 297/358/299 327/346/299 342/357/299
f 321/348/300 320/285/300 335/287/300 336/359/300
f 314/21/301 313/20/301 328/31/301 329/24/301
f 322/349/302 321/348/302 336/359/302 337/360/302
f 315/22/303 314/21/303 329/24/303 330/25/303
f 323/350/304 322/349/304 337/360/304 338/353/304
f 335/287/305 334/29/305 349/33/305 350/289/305
f 328/31/306 290/34/306 343/35/306
f 297/361/307 342/357/307 357/362/307
f 336/359/308 335/287/308 350/289/308 351/363/308
f 329/24/309 328/31/309 343/35/309 344/36/309
f 337/360/310 336/359/310 351/363/310 352/364/310
f 330/25/311 329/24/311 344/36/311 345/37/311
f 338/353/312 337/360/312 352/364/312 353/365/312
f 331/26/313 330/25/313 345/37/313 346/38/313
f 339/354/314 338/353/314 353/365/314 354/366/314
f 332/27/315 331/26/315 346/38/315 347/39/315
f 340/355/316 339/354/316 354/366/316 355/367/316
f 333/28/317 332/27/317 347/39/317 348/32/317
f 341/356/318 340/355/318 355/367/318 356/368/318
f 334/29/319 333/28/319 348/32/319 349/33/319
f 342/357/320 341/356/320 356/368/320 357/362/320
f 354/366/321 353/365/321 368/369/321 369/370/321
f 347/39/322 346/38/322 361/41/322 362/42/322
f 355/367/323 354/366/323 369/370/323 370/371/323
f 348/32/324 347/39/324 362/42/324 363/43/324
f 356/368/325 355/367/325 370/371/325 371/372/325
f 349/33/326 348/32/326 363/43/326 364/44/326
f 357/362/327 356/368/327 371/372/327 372/373/327
f 350/289/328 349/33/328 364/44/328 365/291/328
f 343/35/329 290/45/329 358/46/329
f 297/374/330 357/362/330 372/373/330
f 351/363/331 350/289/331 365/291/331 366/375/331
f 344/36/332 343/35/332 358/46/332 359/47/332
f 352/364/333 351/363/333 366/375/333 367/376/333
f 345/37/334 344/36/334 359/47/334 360/40/334
f 353/365/335 352/364/335 367/376/335 368/369/335
f 346/38/336 345/37/336 360/40/336 361/41/336
f 297/377/337 372/373/337 387/378/337
f 366/375/338 365/291/338 380/293/338 381/379/338
f 359/47/339 358/46/339 373/49/339 374/50/339
f 367/376/340 366/375/340 381/379/340 382/380/340
f 360/40/341 359/47/341 374/50/341 375/51/341
f 368/369/342 367/376/342 382/380/342 383/381/342
f 361/41/343 360/40/343 375/51/343 376/52/343
f 369/370/344 368/369/344 383/381/344 384/382/344
f 362/42/345 361/41/345 376/52/345 377/53/345
f 370/371/346 369/370/346 384/382/346 385/383/346
f 363/43/347 362/42/347 377/53/347 378/54/347
f 371/372/348 370/371/348 385/383/348 386/384/348
f 364/44/349 363/43/349 378/54/349 379/55/349
f 372/373/350 371/372/350 386/384/350 387/378/350
f 365/291/351 364/44/351 379/55/351 380/293/351
f 358/46/352 290/48/352 373/49/352
f 385/383/353 384/382/353 399/385/353 400/386/353
f 378/54/354 377/53/354 392/58/354 393/59/354
f 386/384/355 385/383/355 400/386/355 401/387/355
f 379/55/356 378/54/356 393/59/356 394/60/356
f 387/378/357 386/384/357 401/387/357 402/388/357
f 380/293/358 379/55/358 394/60/358 395/295/358
f 373/49/359 290/61/359 388/62/359
f 297/389/360 387/378/360 402/388/360
f 381/379/361 380/293/361 395/295/361 396/390/361
f 374/50/362 373/49/362 388/62/362 389/63/362
f 382/380/363 381/379/363 396/390/363 397/391/363
f 375/51/364 374/50/364 389/63/364 390/56/364
f 383/381/365 382/380/365 397/391/365 398/392/365
f 376/52/366 375/51/366 390/56/366 391/57/366
f 384/382/367 383/381/367 398/392/367 399/385/367
f 377/53/368 376/52/368 391/57/368 392/58/368
f 389/63/369 388/62/369 403/65/369 404/66/369
f 397/391/370 396/390/370 411/393/370 412/394/370
f 390/56/371 389/63/371 404/66/371 405/67/371
f 398/392/372 397/391/372 412/394/372 413/395/372
f 391/57/373 390/56/373 405/67/373 406/68/373
f 399/385/374 398/392/374 413/395/374 414/396/374
f 392/58/375 391/57/375 406/68/375 407/69/375
f 400/386/376 399/385/376 414/396/376 415/397/376
f 393/59/377 392/58/377 407/69/377 408/70/377
f 401/387/378 400/386/378 415/397/378 416/398/378
f 394/60/379 393/59/379 408/70/379 409/71/379
f 402/388/380 401/387/380 416/398/380 417/399/380
f 395/295/381 394/60/381 409/71/381 410/400/381
f 388/62/382 290/64/382 403/65/382
f 297/401/383 402/388/383 417/399/383
f 396/390/384 395/295/384 410/400/384 411/393/384
f 408/70/385 407/69/385 422/73/385 423/74/385
f 416/398/386 415/397/386 430/402/386 431/403/386
f 409/71/387 408/70/387 423/74/387 424/75/387
f 417/399/388 416/398/388 431/403/388 432/404/388
f 410/400/389 409/71/389 424/75/389 425/405/389
f 403/65/390 290/76/390 418/77/390
f 297/406/391 417/399/391 432/404/391
f 411/393/392 410/400/392 425/405/392 426/407/392
f 404/66/393 403/65/393 418/77/393 419/78/393
f 412/394/394 411/393/394 426/407/394 427/408/394
f 405/67/395 404/66/395 419/78/395 420/79/395
f 413/395/396 412/394/396 427/408/396 428/409/396
f 406/68/397 405/67/397 420/79/397 421/72/397
f 414/396/398 413/395/398 428/409/398 429/410/398
f 407/69/399 406/68/399 421/72/399 422/73/399
f 415/397/400 414/396/400 429/410/400 430/402/400
f 427/408/401 426/407/401 441/411/401 442/412/401
f 420/79/402 419/78/402 434/82/402 435/83/402
f 428/409/403 427/408/403 442/412/403 443/413/403
f 421/72/404 420/79/404 435/83/404 436/84/404
f 429/410/405 428/409/405 443/413/405 444/414/405
f 422/73/406 421/72/406 436/84/406 437/85/406
f 430/402/407 429/410/407 444/414/407 445/415/407
f 423/74/408 422/73/408 437/85/408 438/86/408
f 431/403/409 430/402/409 445/415/409 446/416/409
f 424/75/410 423/74/410 438/86/410 439/87/410
f 432/404/411 431/403/411 446/416/411 447/417/411
f 425/405/412 424/75/412 439/87/412 440/418/412
f 418/77/413 290/80/413 433/81/413
f 297/419/414 432/404/414 447/417/414
f 426/407/415 425/405/415 440/418/415 441/411/415
f 419/78/416 418/77/416 433/81/416 434/82/416
f 446/416/417 445/415/417 460/420/417 461/421/417
f 439/87/418 438/86/418 453/90/418 454/91/418
f 447/417/419 446/416/419 461/421/419 462/422/419
f 440/418/420 439/87/420 454/91/420 455/423/420
f 433/81/421 290/92/421 448/93/421
f 297/424/422 447/417/422 462/422/422
f 441/411/423 440/418/423 455/423/423 456/425/423
f 434/82/424 433/81/424 448/93/424 449/94/424
f 442/412/425 441/411/425 456/425/425 457/426/425
f 435/83/426 434/82/426 449/94/426 450/95/426
f 443/413/427 442/412/427 457/426/427 458/427/427
f 436/84/428 435/83/428 450/95/428 451/88/428
f 444/414/429 443/413/429 458/427/429 459/428/429
f 437/85/430 436/84/430 451/88/430 452/89/430
f 445/415/431 444/414/431 459/428/431 460/420/431
f 438/86/432 437/85/432 452/89/432 453/90/432
f 450/95/433 449/94/433 464/97/433 465/98/433
f 458/427/434 457/426/434 472/429/434 473/430/434
f 451/88/435 450/95/435 465/98/435 466/99/435
f 459/428/436 458/427/436 473/430/436 474/431/436
f 452/89/437 451/88/437 466/99/437 467/100/437
f 460/420/438 459/428/438 474/431/438 475/432/438
f 453/90/439 452/89/439 467/100/439 468/101/439
f 461/421/440 460/420/440 475/432/440 476/433/440
f 454/91/441 453/90/441 468/101/441 469/102/441
f 462/422/442 461/421/442 476/433/442 477/434/442
f 455/423/443 454/91/443 469/102/443 470/435/443
f 448/93/444 290/103/444 463/96/444
f 297/436/445 462/422/445 477/434/445
f 456/425/446 455/423/446 470/435/446 471/437/446
f 449/94/447 448/93/447 463/96/447 464/97/447
f 457/426/448 456/425/448 471/437/448 472/429/448
f 469/102/449 468/101/449 483/105/449 484/106/449
f 477/434/450 476/433/450 491/438/450 492/439/450
f 470/435/451 469/102/451 484/106/451 485/440/451
f 463/96/452 290/107/452 478/108/452
f 297/441/453 477/434/453 492/439/453
f 471/437/454 470/435/454 485/440/454 486/442/454
f 464/97/455 463/96/455 478/108/455 479/109/455
f 472/429/456 471/437/456 486/442/456 487/443/456
f 465/98/457 464/97/457 479/109/457 480/110/457
f 473/430/458 472/429/458 487/443/458 488/444/458
f 466/99/459 465/98/459 480/110/459 481/111/459
f 474/431/460 473/430/460 488/444/460 489/445/460
f 467/100/461 466/99/461 481/111/461 482/104/461
f 475/432/462 474/431/462 489/445/462 490/446/462
f 468/101/463 467/100/463 482/104/463 483/105/463
f 476/433/464 475/432/464 490/446/464 491/438/464
f 488/444/465 487/443/465 502/447/465 503/448/465
f 481/111/466 480/110/466 495/113/466 496/114/466
f 489/445/467 488/444/467 503/448/467 504/449/467
f 482/104/468 481/111/468 496/114/468 497/115/468
f 490/446/469 489/445/469 504/449/469 505/450/469
f 483/105/470 482/104/470 497/115/470 498/116/470
f 491/438/471 490/446/471 505/450/471 506/451/471
f 484/106/472 483/105/472 498/116/472 499/117/472
f 492/439/473 491/438/473 506/451/473 507/452/473
f 485/440/474 484/106/474 499/117/474 500/453/474
f 478/108/475 290/118/475 493/119/475
f 297/454/476 492/439/476 507/452/476
f 486/442/477 485/440/477 500/453/477 501/455/477
f 479/109/478 478/108/478 493/119/478 494/112/478
f 487/443/479 486/442/479 501/455/479 502/447/479
f 480/110/480 479/109/480 494/112/480 495/113/480
f 507/452/481 506/451/481 521/456/481 522/457/481
f 500/453/482 499/117/482 514/121/482 515/458/482
f 493/119/483 290/122/483 508/123/483
f 297/459/484 507/452/484 522/457/484
f 501/455/485 500/453/485 515/458/485 516/460/485
f 494/112/486 493/119/486 508/123/486 509/124/486
f 502/447/487 501/455/487 516/460/487 517/461/487
f 495/113/488 494/112/488 509/124/488 510/125/488
f 503/448/489 502/447/489 517/461/489 518/462/489
f 496/114/490 495/113/490 510/125/490 511/126/490
f 504/449/491 503/448/491 518/462/491 519/463/491
f 497/115/492 496/114/492 511/126/492 512/127/492
f 505/450/493 504/449/493 519/463/493 520/464/493
f 498/116/494 497/115/494 512/127/494 513/120/494
f 506/451/495 505/450/495 520/464/495 521/456/495
f 499/117/496 498/116/496 513/120/496 514/121/496
f 519/463/497 518/462/497 533/465/497 534/466/497
f 512/127/498 511/126/498 526/130/498 527/131/498
f 520/464/499 519/463/499 534/466/499 535/467/499
f 513/120/500 512/127/500 527/131/500 528/132/500
f 521/456/501 520/464/501 535/467/501 536/468/501
f 514/121/502 513/120/502 528/132/502 529/133/502
f 522/457/503 521/456/503 536/468/503 537/469/503
f 515/458/504 514/121/504 529/133/504 530/470/504
f 508/123/505 290/134/505 523/135/505
f 297/471/506 522/457/506 537/469/506
f 516/460/507 515/458/507 530/470/507 531/472/507
f 509/124/508 508/123/508 523/135/508 524/128/508
f 517/461/509 516/460/509 531/472/509 532/473/509
f 510/125/510 509/124/510 524/128/510 525/129/510
f 518/462/511 517/461/511 532/473/511 533/465/511
f 511/126/512 510/125/512 525/129/512 526/130/512
f 523/135/513 290/138/513 538/139/513
f 297/474/514 537/469/514 552/475/514
f 531/472/515 530/470/515 545/476/515 546/477/515
f 524/128/516 523/135/516 538/139/516 539/140/516
f 532/473/517 531/472/517 546/477/517 547/478/517
f 525/129/518 524/128/518 539/140/518 540/141/518
f 533/465/519 532/473/519 547/478/519 548/479/519
f 526/130/520 525/129/520 540/141/520 541/142/520
f 534/466/521 533/465/521 548/479/521 549/480/521
f 527/131/522 526/130/522 541/142/522 542/143/522
f 535/467/523 534/466/523 549/480/523 550/481/523
f 528/132/524 527/131/524 542/143/524 543/136/524
f 536/468/525 535/467/525 550/481/525 551/482/525
f 529/133/526 528/132/526 543/136/526 544/137/526
f 537/469/527 536/468/527 551/482/527 552/475/527
f 530/470/528 529/133/528 544/137/528 545/476/528
f 542/143/529 541/142/529 556/145/529 557/146/529
f 550/481/530 549/480/530 564/483/530 565/484/530
f 543/136/531 542/143/531 557/146/531 558/147/531
f 551/482/532 550/481/532 565/484/532 566/485/532
f 544/137/533 543/136/533 558/147/533 559/148/533
f 552/475/534 551/482/534 566/485/534 567/486/534
f 545/476/535 544/137/535 559/148/535 560/487/535
f 538/139/536 290/149/536 553/150/536
f 297/488/537 552/475/537 567/486/537
f 546/477/538 545/476/538 560/487/538 561/489/538
f 539/140/539 538/139/539 553/150/539 554/151/539
f 547/478/540 546/477/540 561/489/540 562/490/540
f 540/141/541 539/140/541 554/151/541 555/144/541
f 548/479/542 547/478/542 562/490/542 563/491/542
f 541/142/543 540/141/543 555/144/543 556/145/543
f 549/480/544 548/479/544 563/491/544 564/483/544
f 561/489/545 560/487/545 575/492/545 576/493/545
f 554/151/546 553/150/546 568/153/546 569/154/546
f 562/490/547 561/489/547 576/493/547 577/494/547
f 555/144/548 554/151/548 569/154/548 570/155/548
f 563/491/549 562/490/549 577/494/549 578/495/549
f 556/145/550 555/144/550 570/155/550 571/156/550
f 564/483/551 563/491/551 578/495/551 579/496/551
f 557/146/552 556/145/552 571/156/552 572/157/552
f 565/484/553 564/483/553 579/496/553 580/497/553
f 558/147/554 557/146/554 572/157/554 573/158/554
f 566/485/555 565/484/555 580/497/555 581/498/555
f 559/148/556 558/147/556 573/158/556 574/159/556
f 567/486/557 566/485/557 581/498/557 582/499/557
f 560/487/558 559/148/558 574/159/558 575/492/558
f 553/150/559 290/152/559 568/153/559
f 297/500/560 567/486/560 582/499/560
f 580/497/561 579/496/561 594/501/561 595/502/561
f 573/158/562 572/157/562 587/162/562 588/163/562
f 581/498/563 580/497/563 595/502/563 596/503/563
f 574/159/564 573/158/564 588/163/564 589/164/564
f 582/499/565 581/498/565 596/503/565 597/504/565
f 575/492/566 574/159/566 589/164/566 590/505/566
f 568/153/567 290/165/567 583/166/567
f 297/506/568 582/499/568 597/504/568
f 576/493/569 575/492/569 590/505/569 591/507/569
f 569/154/570 568/153/570 583/166/570 584/167/570
f 577/494/571 576/493/571 591/507/571 592/508/571
f 570/155/572 569/154/572 584/167/572 585/160/572
f 578/495/573 577/494/573 592/508/573 593/509/573
f 571/156/574 570/155/574 585/160/574 586/161/574
f 579/496/575 578/495/575 593/509/575 594/501/575
f 572/157/576 571/156/576 586/161/576 587/162/576
f 584/167/577 583/166/577 598/169/577 599/170/577
f 592/508/578 591/507/578 606/510/578 607/511/578
f 585/160/579 584/167/579 599/170/579 600/171/579
f 593/509/580 592/508/580 607/511/580 608/512/580
f 586/161/581 585/160/581 600/171/581 601/172/581
f 594/501/582 593/509/582 608/512/582 609/513/582
f 587/162/583 586/161/583 601/172/583 602/173/583
f 595/502/584 594/501/584 609/513/584 610/514/584
f 588/163/585 587/162/585 602/173/585 603/174/585
f 596/503/586 595/502/586 610/514/586 611/515/586
f 589/164/587 588/163/587 603/174/587 604/175/587
f 597/504/588 596/503/588 611/515/588 612/516/588
f 590/505/589 589/164/589 604/175/589 605/517/589
f 583/166/590 290/168/590 598/169/590
f 297/518/591 597/504/591 612/516/591
f 591/507/592 590/505/592 605/517/592 606/510/592
f 603/174/593 602/173/593 617/177/593 618/178/593
f 611/515/594 610/514/594 625/519/594 626/520/594
f 604/175/595 603/174/595 618/178/595 619/179/595
f 612/516/596 611/515/596 626/520/596 627/521/596
f 605/517/597 604/175/597 619/179/597 620/522/597
f 598/169/598 290/180/598 613/181/598
f 297/523/599 612/516/599 627/521/599
f 606/510/600 605/517/600 620/522/600 621/524/600
f 599/170/601 598/169/601 613/181/601 614/182/601
f 607/511/602 606/510/602 621/524/602 622/525/602
f 600/171/603 599/170/603 614/182/603 615/183/603
f 608/512/604 607/511/604 622/525/604 623/526/604
f 601/172/605 600/171/605 615/183/605 616/176/605
f 609/513/606 608/512/606 623/526/606 624/527/606
f 602/173/607 601/172/607 616/176/607 617/177/607
f 610/514/608 609/513/608 624/527/608 625/519/608
f 622/525/609 621/524/609 636/528/609 637/529/609
f 615/183/610 614/182/610 629/185/610 630/186/610
f 623/526/611 622/525/611 637/529/611 638/530/611
f 616/176/612 615/183/612 630/186/612 631/187/612
f 624/527/613 623/526/613 638/530/613 639/531/613
f 617/177/614 616/176/614 631/187/614 632/188/614
f 625/519/615 624/527/615 639/531/615 640/532/615
f 618/178/616 617/177/616 632/188/616 633/189/616
f 626/520/617 625/519/617 640/532/617 641/533/617
f 619/179/618 618/178/618 633/189/618 634/190/618
f 627/521/619 626/520/619 641/533/619 642/534/619
f 620/522/620 619/179/620 634/190/620 635/535/620
f 613/181/621 290/191/621 628/184/621
f 297/536/622 627/521/622 642/534/622
f 621/524/623 620/522/623 635/535/623 636/528/623
f 614/182/624 613/181/624 628/184/624 629/185/624
f 641/533/625 640/532/625 655/537/625 656/538/625
f 634/190/626 633/189/626 648/193/626 649/194/626
f 642/534/627 641/533/627 656/538/627 657/539/627
f 635/535/628 634/190/628 649/194/628 650/329/628
f 628/184/629 290/195/629 643/196/629
f 297/540/630 642/534/630 657/539/630
f 636/528/631 635/535/631 650/329/631 651/541/631
f 629/185/632 628/184/632 643/196/632 644/197/632
f 637/529/633 636/528/633 651/541/633 652/542/633
f 630/186/634 629/185/634 644/197/634 645/198/634
f 638/530/635 637/529/635 652/542/635 653/543/635
f 631/187/636 630/186/636 645/198/636 646/199/636
f 639/531/637 638/530/637 653/543/637 654/544/637
f 632/188/638 631/187/638 646/199/638 647/192/638
f 640/532/639 639/531/639 654/544/639 655/537/639
f 633/189/640 632/188/640 647/192/640 648/193/640
f 653/545/641 652/546/641 667/547/641 668/548/641
f 646/206/642 645/204/642 660/205/642 661/207/642
f 654/549/643 653/545/643 668/548/643 669/550/643
f 647/208/644 646/206/644 661/207/644 662/209/644
f 655/551/645 654/549/645 669/550/645 670/552/645
f 648/210/646 647/208/646 662/209/646 663/211/646
f 656/553/647 655/551/647 670/552/647 671/554/647
f 649/212/648 648/210/648 663/211/648 664/213/648
f 657/555/649 656/553/649 671/554/649 672/556/649
f 650/264/650 649/212/650 664/213/650 665/557/650
f 643/201/651 290/214/651 658/202/651
f 297/558/652 657/555/652 672/556/652
f 651/559/653 650/264/653 665/557/653 666/560/653
f 644/200/654 643/201/654 658/202/654 659/203/654
f 652/546/655 651/559/655 666/560/655 667/547/655
f 645/204/656 644/200/656 659/203/656 660/205/656
f 672/556/657 671/554/657 686/561/657 687/562/657
f 665/557/658 664/213/658 679/217/658 680/563/658
f 658/202/659 290/218/659 673/219/659
f 297/564/660 672/556/660 687/562/660
f 666/560/661 665/557/661 680/563/661 681/565/661
f 659/203/662 658/202/662 673/219/662 674/220/662
f 667/547/663 666/560/663 681/565/663 682/566/663
f 660/205/664 659/203/664 674/220/664 675/221/664
f 668/548/665 667/547/665 682/566/665 683/567/665
f 661/207/666 660/205/666 675/221/666 676/222/666
f 669/550/667 668/548/667 683/567/667 684/568/667
f 662/209/668 661/207/668 676/222/668 677/215/668
f 670/552/669 669/550/669 684/568/669 685/569/669
f 663/211/670 662/209/670 677/215/670 678/216/670
f 671/554/671 670/552/671 685/569/671 686/561/671
f 664/213/672 663/211/672 678/216/672 679/217/672
f 676/222/673 675/221/673 690/224/673 691/225/673
f 684/568/674 683/567/674 698/570/674 699/571/674
f 677/215/675 676/222/675 691/225/675 692/226/675
f 685/569/676 684/568/676 699/571/676 700/572/676
f 678/216/677 677/215/677 692/226/677 693/227/677
f 686/561/678 685/569/678 700/572/678 701/573/678
f 679/217/679 678/216/679 693/227/679 694/228/679
f 687/562/680 686/561/680 701/573/680 702/574/680
f 680/563/681 679/217/681 694/228/681 695/575/681
f 673/219/682 290/229/682 688/230/682
f 297/576/683 687/562/683 702/574/683
f 681/565/684 680/563/684 695/575/684 696/577/684
f 674/220/685 673/219/685 688/230/685 689/223/685
f 682/566/686 681/565/686 696/577/686 697/578/686
f 675/221/687 674/220/687 689/223/687 690/224/687
f 683/567/688 682/566/688 697/578/688 698/570/688
f 695/575/689 694/228/689 709/232/689 710/579/689
f 688/230/690 290/233/690 703/234/690
f 297/580/691 702/574/691 717/581/691
f 696/577/692 695/575/692 710/579/692 711/582/692
f 689/223/693 688/230/693 703/234/693 704/235/693
f 697/578/694 696/577/694 711/582/694 712/583/694
f 690/224/695 689/223/695 704/235/695 705/236/695
f 698/570/696 697/578/696 712/583/696 713/584/696
f 691/225/697 690/224/697 705/236/697 706/237/697
f 699/571/698 698/570/698 713/584/698 714/585/698
f 692/226/699 691/225/699 706/237/699 707/238/699
f 700/572/700 699/571/700 714/585/700 715/586/700
f 693/227/701 692/226/701 707/238/701 708/231/701
f 701/573/702 700/572/702 715/586/702 716/587/702
f 694/228/703 693/227/703 708/231/703 709/232/703
f 702/574/704 701/573/704 716/587/704 717/581/704
f 714/585/705 713/584/705 728/588/705 729/589/705
f 707/238/706 706/237/706 721/241/706 722/242/706
f 715/586/707 714/585/707 729/589/707 730/590/707
f 708/231/708 707/238/708 722/242/708 723/243/708
f 716/587/709 715/586/709 730/590/709 731/591/709
f 709/232/710 708/231/710 723/243/710 724/244/710
f 717/581/711 716/587/711 731/591/711 732/592/711
f 710/579/712 709/232/712 724/244/712 725/593/712
f 703/234/713 290/245/713 718/246/713
f 297/594/714 717/581/714 732/592/714
f 711/582/715 710/579/715 725/593/715 726/595/715
f 704/235/716 703/234/716 718/246/716 719/239/716
f 712/583/717 711/582/717 726/595/717 727/596/717
f 705/236/718 704/235/718 719/239/718 720/240/718
f 713/584/719 712/583/719 727/596/719 728/588/719
f 706/237/720 705/236/720 720/240/720 721/241/720
f 718/246/721 290/249/721 733/250/721
f 297/597/722 732/592/722 747/598/722
f 726/595/723 725/593/723 740/599/723 741/600/723
f 719/239/724 718/246/724 733/250/724 734/251/724
f 727/596/725 726/595/725 741/600/725 742/601/725
f 720/240/726 719/239/726 734/251/726 735/252/726
f 728/588/727 727/596/727 742/601/727 743/602/727
f 721/241/728 720/240/728 735/252/728 736/253/728
f 729/589/729 728/588/729 743/602/729 744/603/729
f 722/242/730 721/241/730 736/253/730 737/254/730
f 730/590/731 729/589/731 744/603/731 745/604/731
f 723/243/732 722/242/732 737/254/732 738/247/732
f 731/591/733 730/590/733 745/604/733 746/605/733
f 724/244/734 723/243/734 738/247/734 739/248/734
f 732/592/735 731/591/735 746/605/735 747/598/735
f 725/593/736 724/244/736 739/248/736 740/599/736
f 737/254/737 736/253/737 751/256/737 752/257/737
f 745/604/738 744/603/738 759/606/738 760/607/738
f 738/247/739 737/254/739 752/257/739 753/258/739
f 746/605/740 745/604/740 760/607/740 761/608/740
f 739/248/741 738/247/741 753/258/741 754/259/741
f 747/598/742 746/605/742 761/608/742 762/609/742
f 740/599/743 739/248/743 754/259/743 755/610/743
f 733/250/744 290/260/744 748/261/744
f 297/611/745 747/598/745 762/609/745
f 741/600/746 740/599/746 755/610/746 756/612/746
f 734/251/747 733/250/747 748/261/747 749/262/747
f 742/601/748 741/600/748 756/612/748 757/613/748
f 735/252/749 734/251/749 749/262/749 750/255/749
f 743/602/750 742/601/750 757/613/750 758/614/750
f 736/253/751 735/252/751 750/255/751 751/256/751
f 744/603/752 743/602/752 758/614/752 759/606/752
f 756/612/753 755/610/753 294/281/753 295/333/753
f 749/262/754 748/261/754 763/1/754 764/4/754
f 757/613/755 756/612/755 295/333/755 767/335/755
f 750/255/756 749/262/756 764/4/756 291/6/756
f 758/614/757 757/613/757 767/335/757 296/337/757
f 751/256/758 750/255/758 291/6/758 765/8/758
f 759/606/759 758/614/759 296/337/759 768/339/759
f 752/257/760 751/256/760 765/8/760 292/10/760
f 760/607/761 759/606/761 768/339/761 769/341/761
f 753/258/762 752/257/762 292/10/762 766/12/762
f 761/608/763 760/607/763 769/341/763 770/343/763
f 754/259/764 753/258/764 766/12/764 293/14/764
f 762/609/765 761/608/765 770/343/765 771/331/765
f 755/610/766 754/259/766 293/14/766 294/281/766
f 748/261/767 290/263/767 763/1/767
f 297/615/768 762/609/768 771/331/768
f 772/616/769 773/617/769 775/366/769 774/431/769
f 774/431/770 775/366/770 779/289/770 778/305/770
f 778/305/771 779/289/771 777/38/771 776/618/771
f 776/618/772 777/38/772 773/288/772 772/304/772
f 774/321/773 778/305/773 776/618/773 772/619/773
f 779/289/774 775/273/774 773/620/774 777/38/774
